# This file uses centimeters as units for non-parametric coordinates.

v -0.005486 -0.500000 -0.085430
v 0.005486 -0.500000 -0.085430
v -0.005486 -0.250000 -0.085430
v 0.005486 -0.250000 -0.085430
v -0.005024 -0.234030 -0.085430
v 0.005024 -0.234030 -0.085430
v -0.005024 0.250000 -0.085430
v 0.005024 0.250000 -0.085430
v 0.000000 0.613615 -0.085430
v 0.000000 0.538737 -0.007652
v 0.000000 0.384058 0.159833
v 0.000000 0.250000 0.162951
v 0.000000 -0.234030 0.162951
v 0.000000 -0.250000 0.162951
v 0.000000 -0.500000 -0.007652
v 0.000000 -0.250000 -0.007652
v 0.007408 -0.234030 -0.007652
v 0.007408 0.250000 -0.007652
v -0.007408 -0.234030 -0.007652
v -0.007408 0.250000 -0.007652
vt 0.000912 0.001992
vt 0.010725 0.001992
vt 0.000912 0.225592
vt 0.010725 0.225592
vt 0.001325 0.239876
vt 0.010312 0.239876
vt 0.001325 0.672791
vt 0.010312 0.672791
vt 0.005819 0.998008
vt 0.452021 0.001992
vt 0.456928 0.067341
vt 0.447115 0.067341
vt 0.017753 0.001992
vt 0.083103 0.001992
vt 0.017753 0.225592
vt 0.083103 0.225592
vt 0.226443 0.225592
vt 0.226443 0.239876
vt 0.083103 0.239876
vt 0.017753 0.239876
vt 0.083103 0.672791
vt 0.226443 0.672791
vt 0.017753 0.672791
vt 0.223823 0.792693
vt 0.083103 0.931037
vt 0.017753 0.998008
vt 0.375774 0.001992
vt 0.441123 0.001992
vt 0.375774 0.225592
vt 0.441123 0.225592
vt 0.232434 0.225592
vt 0.232434 0.239876
vt 0.375774 0.239876
vt 0.441123 0.239876
vt 0.232434 0.672791
vt 0.375774 0.672791
vt 0.441123 0.672791
vt 0.235054 0.792693
vt 0.375774 0.931037
vt 0.441123 0.998008
vn 0.000000 0.000000 -1.000000
vn 0.000000 0.000000 -1.000000
vn 0.000000 0.000000 -1.000000
vn 0.000000 0.000000 -1.000000
vn 0.000000 0.000000 -1.000000
vn 0.000000 0.000000 -1.000000
vn 0.000000 0.000000 -1.000000
vn 0.000000 0.000000 -1.000000
vn 0.000000 0.000000 -1.000000
vn 0.000000 0.000000 -1.000000
vn 0.000000 0.000000 -1.000000
vn 0.000000 0.000000 -1.000000
vn 0.000000 0.000000 -1.000000
vn 0.000000 0.000000 -1.000000
vn 0.000000 0.000000 -1.000000
vn 0.000000 0.000000 -1.000000
vn 0.000000 0.000000 -1.000000
vn 0.000000 0.000000 -1.000000
vn 0.000000 0.000000 -1.000000
vn 0.000000 0.000000 -1.000000
vn 0.000000 0.000000 -1.000000
vn 0.000000 -1.000000 0.000000
vn 0.000000 -1.000000 0.000000
vn 0.000000 -1.000000 0.000000
vn 0.997522 0.000000 0.070357
vn 0.997872 -0.002702 0.065150
vn 0.997522 0.000000 0.070357
vn 0.997872 -0.002702 0.065150
vn 0.994976 -0.074660 0.066701
vn 0.997522 0.000000 0.070357
vn 1.000000 0.000000 0.000000
vn 0.994976 -0.074660 0.066701
vn 0.999113 -0.001032 0.042088
vn 0.994976 -0.074660 0.066701
vn 0.999679 -0.014041 0.021089
vn 0.999113 -0.001032 0.042088
vn 0.994976 -0.074660 0.066701
vn 0.997872 -0.002702 0.065150
vn 0.999679 -0.014041 0.021089
vn 0.997872 -0.002702 0.065150
vn 0.999530 0.000923 -0.030644
vn 0.999679 -0.014041 0.021089
vn 0.999679 -0.014041 0.021089
vn 0.999852 0.007068 0.015703
vn 0.999113 -0.001032 0.042088
vn 0.999852 0.007068 0.015703
vn 0.999059 0.000216 0.043383
vn 0.999113 -0.001032 0.042088
vn 0.999530 0.000923 -0.030644
vn 0.999583 0.008962 -0.027434
vn 0.999679 -0.014041 0.021089
vn 0.999583 0.008962 -0.027434
vn 0.999852 0.007068 0.015703
vn 0.999679 -0.014041 0.021089
vn 0.999059 0.000216 0.043383
vn 0.999852 0.007068 0.015703
vn 0.999403 0.020207 0.028032
vn 0.999852 0.007068 0.015703
vn 0.999714 0.018820 0.014783
vn 0.999403 0.020207 0.028032
vn 0.999852 0.007068 0.015703
vn 0.999583 0.008962 -0.027434
vn 0.999714 0.018820 0.014783
vn 0.999583 0.008962 -0.027434
vn 0.999816 0.013813 0.013298
vn 0.999714 0.018820 0.014783
vn -0.997522 0.000000 0.070357
vn -0.994976 -0.074660 0.066701
vn -0.997522 0.000000 0.070357
vn -0.994976 -0.074660 0.066701
vn -0.997872 -0.002702 0.065150
vn -0.997522 0.000000 0.070357
vn -1.000000 0.000000 0.000000
vn -0.999113 -0.001032 0.042088
vn -0.994976 -0.074660 0.066701
vn -0.999113 -0.001032 0.042088
vn -0.999679 -0.014041 0.021089
vn -0.994976 -0.074660 0.066701
vn -0.994976 -0.074660 0.066701
vn -0.999679 -0.014041 0.021089
vn -0.997872 -0.002702 0.065150
vn -0.999679 -0.014041 0.021089
vn -0.999530 0.000923 -0.030644
vn -0.997872 -0.002702 0.065150
vn -0.999113 -0.001032 0.042088
vn -0.999059 0.000216 0.043383
vn -0.999679 -0.014041 0.021089
vn -0.999059 0.000216 0.043383
vn -0.999852 0.007068 0.015703
vn -0.999679 -0.014041 0.021089
vn -0.999679 -0.014041 0.021089
vn -0.999852 0.007068 0.015703
vn -0.999530 0.000923 -0.030644
vn -0.999852 0.007068 0.015703
vn -0.999583 0.008962 -0.027434
vn -0.999530 0.000923 -0.030644
vn -0.999059 0.000216 0.043383
vn -0.999403 0.020207 0.028032
vn -0.999852 0.007068 0.015703
vn -0.999403 0.020207 0.028032
vn -0.999714 0.018820 0.014783
vn -0.999852 0.007068 0.015703
vn -0.999852 0.007068 0.015703
vn -0.999714 0.018820 0.014783
vn -0.999583 0.008962 -0.027434
vn -0.999714 0.018820 0.014783
vn -0.999816 0.013813 0.013298
vn -0.999583 0.008962 -0.027434
s off
f 1/1/1 3/3/2 2/2/3
f 3/3/4 4/4/5 2/2/6
f 3/3/7 5/5/8 4/4/9
f 5/5/10 6/6/11 4/4/12
f 5/5/13 7/7/14 6/6/15
f 7/7/16 8/8/17 6/6/18
f 7/7/19 9/9/20 8/8/21
f 15/10/22 1/12/23 2/11/24
f 2/13/25 4/15/26 15/14/27
f 4/15/28 16/16/29 15/14/30
f 14/17/31 16/16/32 13/18/33
f 16/16/34 17/19/35 13/18/36
f 16/16/37 4/15/38 17/19/39
f 4/15/40 6/20/41 17/19/42
f 17/19/43 18/21/44 13/18/45
f 18/21/46 12/22/47 13/18/48
f 6/20/49 8/23/50 17/19/51
f 8/23/52 18/21/53 17/19/54
f 12/22/55 18/21/56 11/24/57
f 18/21/58 10/25/59 11/24/60
f 18/21/61 8/23/62 10/25/63
f 8/23/64 9/26/65 10/25/66
f 15/27/67 16/29/68 1/28/69
f 16/29/70 3/30/71 1/28/72
f 14/31/73 13/32/74 16/29/75
f 13/32/76 19/33/77 16/29/78
f 16/29/79 19/33/80 3/30/81
f 19/33/82 5/34/83 3/30/84
f 13/32/85 12/35/86 19/33/87
f 12/35/88 20/36/89 19/33/90
f 19/33/91 20/36/92 5/34/93
f 20/36/94 7/37/95 5/34/96
f 12/35/97 11/38/98 20/36/99
f 11/38/100 10/39/101 20/36/102
f 20/36/103 10/39/104 7/37/105
f 10/39/106 9/40/107 7/37/108
