# This file uses centimeters as units for non-parametric coordinates.

v 0.404509 -0.500000 -0.293893
v 0.154508 -0.500000 -0.475528
v -0.154509 -0.500000 -0.475528
v -0.404509 -0.500000 -0.293893
v -0.500000 -0.500000 0.000000
v -0.404509 -0.500000 0.293893
v -0.154508 -0.500000 0.475528
v 0.154509 -0.500000 0.475528
v 0.404509 -0.500000 0.293893
v 0.500000 -0.500000 0.000000
v 0.404509 0.500000 -0.293893
v 0.154508 0.500000 -0.475528
v -0.154509 0.500000 -0.475528
v -0.404509 0.500000 -0.293893
v -0.500000 0.500000 0.000000
v -0.404509 0.500000 0.293893
v -0.154508 0.500000 0.475528
v 0.154509 0.500000 0.475528
v 0.404509 0.500000 0.293893
v 0.500000 0.500000 0.000000
vt 0.793011 0.024760
vt 0.793011 0.475782
vt 0.889354 0.475782
vt 0.022269 0.024760
vt 0.022269 0.475782
vt 0.118611 0.024760
vt 0.118611 0.475782
vt 0.214954 0.024760
vt 0.214954 0.475782
vt 0.311297 0.024760
vt 0.311297 0.475782
vt 0.407640 0.024760
vt 0.407640 0.475782
vt 0.503983 0.024760
vt 0.503983 0.475782
vt 0.600325 0.024760
vt 0.600325 0.475782
vt 0.696668 0.024760
vt 0.696668 0.475782
vt 0.889354 0.024760
vt 0.985697 0.024760
vt 0.985697 0.475782
vt 0.022026 0.661871
vt 0.109190 0.541898
vt 0.022026 0.810164
vt 0.250226 0.496073
vt 0.391262 0.541898
vt 0.478427 0.661870
vt 0.478427 0.810164
vt 0.391262 0.930137
vt 0.250226 0.975962
vt 0.109190 0.930137
vt 0.970077 0.667243
vt 0.970077 0.813893
vt 0.883878 0.548600
vt 0.883878 0.932536
vt 0.744406 0.977853
vt 0.604933 0.932536
vt 0.518734 0.813892
vt 0.518734 0.667242
vt 0.604933 0.548600
vt 0.744406 0.503283
vn 0.587785 0.000000 -0.809017
vn 0.587785 0.000000 -0.809017
vn 0.587785 0.000000 -0.809017
vn 0.587785 0.000000 -0.809017
vn 0.587785 0.000000 -0.809017
vn 0.587785 0.000000 -0.809017
vn -0.000000 0.000000 -1.000000
vn -0.000000 0.000000 -1.000000
vn -0.000000 0.000000 -1.000000
vn -0.000000 0.000000 -1.000000
vn -0.000000 0.000000 -1.000000
vn -0.000000 0.000000 -1.000000
vn -0.587785 0.000000 -0.809017
vn -0.587785 0.000000 -0.809017
vn -0.587785 0.000000 -0.809017
vn -0.587785 0.000000 -0.809017
vn -0.587785 0.000000 -0.809017
vn -0.587785 0.000000 -0.809017
vn -0.951057 0.000000 -0.309017
vn -0.951057 0.000000 -0.309017
vn -0.951057 0.000000 -0.309017
vn -0.951057 0.000000 -0.309017
vn -0.951057 0.000000 -0.309017
vn -0.951057 0.000000 -0.309017
vn -0.951057 0.000000 0.309017
vn -0.951057 0.000000 0.309017
vn -0.951057 0.000000 0.309017
vn -0.951057 0.000000 0.309017
vn -0.951057 0.000000 0.309017
vn -0.951057 0.000000 0.309017
vn -0.587785 0.000000 0.809017
vn -0.587785 0.000000 0.809017
vn -0.587785 0.000000 0.809017
vn -0.587785 0.000000 0.809017
vn -0.587785 0.000000 0.809017
vn -0.587785 0.000000 0.809017
vn 0.000000 0.000000 1.000000
vn 0.000000 0.000000 1.000000
vn 0.000000 0.000000 1.000000
vn 0.000000 0.000000 1.000000
vn 0.000000 0.000000 1.000000
vn 0.000000 0.000000 1.000000
vn 0.587785 0.000000 0.809017
vn 0.587785 0.000000 0.809017
vn 0.587785 0.000000 0.809017
vn 0.587785 0.000000 0.809017
vn 0.587785 0.000000 0.809017
vn 0.587785 0.000000 0.809017
vn 0.951057 0.000000 0.309017
vn 0.951057 0.000000 0.309017
vn 0.951057 0.000000 0.309017
vn 0.951057 0.000000 0.309017
vn 0.951057 0.000000 0.309017
vn 0.951057 0.000000 0.309017
vn 0.951057 0.000000 -0.309017
vn 0.951057 0.000000 -0.309017
vn 0.951057 0.000000 -0.309017
vn 0.951057 0.000000 -0.309017
vn 0.951057 0.000000 -0.309017
vn 0.951057 0.000000 -0.309017
vn 0.000000 -1.000000 0.000000
vn 0.000000 -1.000000 0.000000
vn 0.000000 -1.000000 0.000000
vn 0.000000 -1.000000 0.000000
vn 0.000000 -1.000000 0.000000
vn 0.000000 -1.000000 0.000000
vn 0.000000 -1.000000 0.000000
vn 0.000000 -1.000000 0.000000
vn 0.000000 -1.000000 0.000000
vn 0.000000 -1.000000 0.000000
vn 0.000000 -1.000000 0.000000
vn 0.000000 -1.000000 0.000000
vn 0.000000 -1.000000 0.000000
vn 0.000000 -1.000000 0.000000
vn 0.000000 -1.000000 0.000000
vn 0.000000 -1.000000 0.000000
vn 0.000000 -1.000000 0.000000
vn 0.000000 -1.000000 0.000000
vn 0.000000 -1.000000 0.000000
vn 0.000000 -1.000000 0.000000
vn 0.000000 -1.000000 0.000000
vn 0.000000 -1.000000 0.000000
vn 0.000000 -1.000000 0.000000
vn 0.000000 -1.000000 0.000000
vn 0.000000 1.000000 0.000000
vn 0.000000 1.000000 0.000000
vn 0.000000 1.000000 0.000000
vn 0.000000 1.000000 0.000000
vn 0.000000 1.000000 0.000000
vn 0.000000 1.000000 0.000000
vn 0.000000 1.000000 0.000000
vn 0.000000 1.000000 0.000000
vn 0.000000 1.000000 0.000000
vn 0.000000 1.000000 0.000000
vn 0.000000 1.000000 0.000000
vn 0.000000 1.000000 0.000000
vn 0.000000 1.000000 0.000000
vn 0.000000 1.000000 0.000000
vn 0.000000 1.000000 0.000000
vn 0.000000 1.000000 0.000000
vn 0.000000 1.000000 0.000000
vn 0.000000 1.000000 0.000000
vn 0.000000 1.000000 0.000000
vn 0.000000 1.000000 0.000000
vn 0.000000 1.000000 0.000000
vn 0.000000 1.000000 0.000000
vn 0.000000 1.000000 0.000000
vn 0.000000 1.000000 0.000000
s off
f 1/1/1 2/20/2 11/2/3
f 11/2/4 2/20/5 12/3/6
f 2/20/7 3/21/8 12/3/9
f 12/3/10 3/21/11 13/22/12
f 3/4/13 4/6/14 13/5/15
f 13/5/16 4/6/17 14/7/18
f 4/6/19 5/8/20 14/7/21
f 14/7/22 5/8/23 15/9/24
f 5/8/25 6/10/26 15/9/27
f 15/9/28 6/10/29 16/11/30
f 6/10/31 7/12/32 16/11/33
f 16/11/34 7/12/35 17/13/36
f 7/12/37 8/14/38 17/13/39
f 17/13/40 8/14/41 18/15/42
f 8/14/43 9/16/44 18/15/45
f 18/15/46 9/16/47 19/17/48
f 9/16/49 10/18/50 19/17/51
f 19/17/52 10/18/53 20/19/54
f 10/18/55 1/1/56 20/19/57
f 20/19/58 1/1/59 11/2/60
f 2/23/61 1/24/62 3/25/63
f 1/24/64 10/26/65 3/25/66
f 10/26/67 9/27/68 3/25/69
f 9/27/70 8/28/71 3/25/72
f 8/28/73 7/29/74 3/25/75
f 7/29/76 6/30/77 3/25/78
f 6/30/79 5/31/80 3/25/81
f 5/31/82 4/32/83 3/25/84
f 12/33/85 13/34/86 11/35/87
f 13/34/88 14/36/89 11/35/90
f 14/36/91 15/37/92 11/35/93
f 15/37/94 16/38/95 11/35/96
f 16/38/97 17/39/98 11/35/99
f 17/39/100 18/40/101 11/35/102
f 18/40/103 19/41/104 11/35/105
f 19/41/106 20/42/107 11/35/108
