# This file uses centimeters as units for non-parametric coordinates.

v -0.351657 0.071915 0.168620
v 0.351657 0.071915 0.168620
v -0.351657 0.159202 -0.081334
v 0.351657 0.159202 -0.081334
v -0.351657 -0.090752 -0.168620
v 0.351657 -0.090752 -0.168620
v -0.351657 -0.178039 0.081334
v 0.351657 -0.178039 0.081334
v -0.351657 0.216335 -0.282559
v 0.351657 0.216335 -0.282559
v 0.351657 0.026689 -0.467303
v -0.351657 0.026689 -0.467303
v -0.351657 -0.235172 0.282559
v 0.351657 -0.235172 0.282559
v 0.351657 -0.045525 0.467303
v -0.351657 -0.045525 0.467303
v -0.351657 0.353157 -0.440786
v 0.351657 0.353157 -0.440786
v 0.351657 0.259355 -0.688368
v -0.351657 0.259355 -0.688368
v -0.351657 -0.371993 0.440786
v 0.351657 -0.371993 0.440786
v 0.351657 -0.278191 0.688368
v -0.351657 -0.278191 0.688368
v -0.351657 0.544028 -0.526365
v 0.351657 0.544028 -0.526365
v 0.351657 0.563648 -0.790393
v -0.351657 0.563648 -0.790393
v -0.351657 -0.562865 0.526365
v 0.351657 -0.562865 0.526365
v 0.351657 -0.582485 0.790393
v -0.351657 -0.582485 0.790393
v -0.351657 0.753184 -0.523259
v 0.351657 0.753184 -0.523259
v 0.351657 0.882549 -0.754259
v -0.351657 0.882549 -0.754259
v -0.351657 -0.772021 0.523259
v 0.351657 -0.772021 0.523259
v 0.351657 -0.901386 0.754259
v -0.351657 -0.901386 0.754259
v -0.351657 0.941432 -0.432052
v 0.351657 0.941432 -0.432052
v 0.351657 1.156301 -0.586737
v -0.351657 1.156301 -0.586737
v -0.351657 -0.960268 0.432052
v 0.351657 -0.960268 0.432052
v 0.351657 -1.175137 0.586737
v -0.351657 -1.175137 0.586737
v -0.351657 1.073496 -0.269833
v 0.351657 1.073496 -0.269833
v 0.351657 1.333606 -0.319218
v -0.351657 1.333606 -0.319218
v -0.351657 -1.092332 0.269833
v 0.351657 -1.092332 0.269833
v 0.351657 -1.352443 0.319218
v -0.351657 -1.352443 0.319218
v -0.351657 1.124630 -0.067001
v 0.351657 1.124630 -0.067001
v 0.351657 1.381241 -0.001831
v -0.351657 1.381241 -0.001831
v -0.351657 -1.143467 0.067001
v 0.351657 -1.143467 0.067001
v 0.351657 -1.400077 0.001831
v -0.351657 -1.400077 0.001831
v -0.351657 1.085252 0.138438
v 0.351657 1.085252 0.138438
v 0.351657 1.290279 0.305951
v -0.351657 1.290279 0.305951
v -0.351657 -1.104089 -0.138438
v 0.351657 -1.104089 -0.138438
v 0.351657 -1.309115 -0.305951
v -0.351657 -1.309115 -0.305951
v -0.351657 0.962742 0.307988
v 0.351657 0.962742 0.307988
v 0.351657 1.077765 0.546453
v -0.351657 1.077765 0.546453
v -0.351657 -0.981579 -0.307988
v 0.351657 -0.981579 -0.307988
v 0.351657 -1.096602 -0.546453
v -0.351657 -1.096602 -0.546453
v -0.351657 0.780055 0.409877
v 0.351657 0.780055 0.409877
v 0.351657 0.783522 0.674610
v -0.351657 0.783522 0.674610
v -0.351657 -0.798892 -0.409877
v 0.351657 -0.798892 -0.409877
v 0.351657 -0.802358 -0.674610
v -0.351657 -0.802358 -0.674610
v -0.351657 0.571424 0.425012
v 0.351657 0.571424 0.425012
v 0.351657 0.462685 0.666408
v -0.351657 0.462685 0.666408
v -0.351657 -0.590261 -0.425012
v 0.351657 -0.590261 -0.425012
v 0.351657 -0.481521 -0.666408
v -0.351657 -0.481521 -0.666408
vt 0.908948 0.809406
vt 0.970460 0.809406
vt 0.970460 0.870917
vt 0.908948 0.870917
vt 0.908948 0.734897
vt 0.970460 0.734897
vt 0.970460 0.919431
vt 0.908948 0.919431
vt 0.908948 0.668586
vt 0.970460 0.668586
vt 0.970460 0.964617
vt 0.908948 0.964617
vt 0.908948 0.622900
vt 0.970460 0.622900
vt 0.970460 0.998008
vt 0.908948 0.998008
vt 0.099454 0.684411
vt 0.099454 0.622900
vt 0.160731 0.622900
vt 0.160731 0.684411
vt 0.841471 0.809406
vt 0.902982 0.809406
vt 0.902982 0.870917
vt 0.841471 0.870917
vt 0.841471 0.734897
vt 0.902982 0.734897
vt 0.902982 0.919431
vt 0.841471 0.919431
vt 0.841471 0.668586
vt 0.902982 0.668586
vt 0.902982 0.964617
vt 0.841471 0.964617
vt 0.841471 0.622900
vt 0.902982 0.622900
vt 0.902982 0.998008
vt 0.841471 0.998008
vt 0.032211 0.684411
vt 0.032211 0.622900
vt 0.093488 0.622900
vt 0.093488 0.684411
vt 0.204944 0.341261
vt 0.204944 0.279750
vt 0.266456 0.279750
vt 0.266456 0.341261
vt 0.130435 0.338379
vt 0.156431 0.282631
vt 0.340965 0.282631
vt 0.314969 0.338379
vt 0.064124 0.304279
vt 0.111245 0.264740
vt 0.407275 0.316732
vt 0.360155 0.356271
vt 0.018438 0.245349
vt 0.077854 0.229429
vt 0.452962 0.375662
vt 0.393546 0.391582
vt 0.001937 0.172633
vt 0.062514 0.183314
vt 0.469463 0.448378
vt 0.408886 0.437696
vt 0.017713 0.099756
vt 0.068100 0.135038
vt 0.453687 0.521255
vt 0.403299 0.485973
vt 0.062810 0.040375
vt 0.093566 0.093645
vt 0.408589 0.580636
vt 0.377834 0.527366
vt 0.128778 0.005615
vt 0.134139 0.066893
vt 0.342622 0.615395
vt 0.337260 0.554118
vt 0.203255 0.001992
vt 0.182217 0.059794
vt 0.268145 0.619019
vt 0.289183 0.561217
vt 0.272285 0.030184
vt 0.228790 0.073679
vt 0.199114 0.590827
vt 0.242610 0.547332
vt 0.322934 0.084907
vt 0.265132 0.105945
vt 0.148466 0.536104
vt 0.206268 0.515066
vt 0.345710 0.155908
vt 0.284432 0.150547
vt 0.125690 0.465102
vt 0.186967 0.470463
vt 0.678922 0.341261
vt 0.678922 0.279750
vt 0.740434 0.279750
vt 0.740434 0.341261
vt 0.630409 0.338380
vt 0.604413 0.282631
vt 0.788947 0.282631
vt 0.814943 0.338380
vt 0.585223 0.356271
vt 0.538103 0.316732
vt 0.834133 0.264740
vt 0.881253 0.304279
vt 0.551832 0.391582
vt 0.492416 0.375661
vt 0.867524 0.229429
vt 0.926940 0.245349
vt 0.536492 0.437696
vt 0.475915 0.448378
vt 0.882864 0.183314
vt 0.943441 0.172633
vt 0.542079 0.485973
vt 0.491691 0.521255
vt 0.877277 0.135038
vt 0.927665 0.099756
vt 0.567544 0.527366
vt 0.536789 0.580636
vt 0.851812 0.093645
vt 0.882567 0.040375
vt 0.608117 0.554118
vt 0.602756 0.615395
vt 0.811239 0.066893
vt 0.816600 0.005615
vt 0.656195 0.561217
vt 0.677233 0.619019
vt 0.763161 0.059794
vt 0.742123 0.001992
vt 0.702768 0.547332
vt 0.746264 0.590827
vt 0.716588 0.073679
vt 0.673093 0.030184
vt 0.739110 0.515066
vt 0.796912 0.536104
vt 0.680246 0.105945
vt 0.622444 0.084907
vt 0.758411 0.470463
vt 0.819688 0.465102
vt 0.660946 0.150547
vt 0.599668 0.155908
vt 0.436607 0.622900
vt 0.498118 0.622900
vt 0.498118 0.669015
vt 0.436607 0.669015
vt 0.498118 0.717291
vt 0.436607 0.717291
vt 0.498118 0.758684
vt 0.436607 0.758684
vt 0.498118 0.785436
vt 0.436607 0.785436
vt 0.633073 0.827875
vt 0.571561 0.827875
vt 0.571561 0.755159
vt 0.633073 0.755159
vt 0.571561 0.682282
vt 0.633073 0.682282
vt 0.571561 0.622900
vt 0.633073 0.622900
vt 0.504084 0.622900
vt 0.565595 0.622900
vt 0.565595 0.669014
vt 0.504084 0.669014
vt 0.565595 0.717291
vt 0.504084 0.717291
vt 0.565595 0.758684
vt 0.504084 0.758684
vt 0.565595 0.785436
vt 0.504084 0.785436
vt 0.700550 0.827875
vt 0.639039 0.827875
vt 0.639039 0.755159
vt 0.700550 0.755159
vt 0.639039 0.682282
vt 0.700550 0.682282
vt 0.639039 0.622900
vt 0.700550 0.622900
vt 0.835505 0.883023
vt 0.773993 0.883023
vt 0.773993 0.817056
vt 0.835505 0.817056
vt 0.773993 0.742579
vt 0.835505 0.742579
vt 0.773993 0.673548
vt 0.835505 0.673548
vt 0.773993 0.622900
vt 0.835505 0.622900
vt 0.768027 0.883023
vt 0.706516 0.883023
vt 0.706516 0.817056
vt 0.768027 0.817056
vt 0.706516 0.742579
vt 0.768027 0.742579
vt 0.706516 0.673549
vt 0.768027 0.673549
vt 0.706516 0.622900
vt 0.768027 0.622900
vt 0.369129 0.622900
vt 0.430641 0.622900
vt 0.430641 0.670978
vt 0.369129 0.670978
vt 0.430641 0.717551
vt 0.369129 0.717551
vt 0.430641 0.753893
vt 0.369129 0.753893
vt 0.301652 0.622900
vt 0.363163 0.622900
vt 0.363163 0.670978
vt 0.301652 0.670978
vt 0.363163 0.717551
vt 0.301652 0.717551
vt 0.363163 0.753893
vt 0.301652 0.753893
vt 0.001937 0.749804
vt 0.001937 0.688293
vt 0.046539 0.688293
vt 0.046539 0.749804
vt 0.295686 0.693901
vt 0.234175 0.693901
vt 0.234175 0.622900
vt 0.295686 0.622900
vt 0.053296 0.749804
vt 0.053296 0.688293
vt 0.097898 0.688293
vt 0.097898 0.749804
vt 0.228209 0.693901
vt 0.166697 0.693901
vt 0.166697 0.622900
vt 0.228209 0.622900
vn 0.000000 0.936896 0.349609
vn 0.000000 0.936896 0.349609
vn 0.000000 0.952398 0.304857
vn 0.000000 0.952398 0.304857
vn 0.000000 -0.911763 -0.410716
vn 0.000000 -0.911763 -0.410716
vn 0.000000 -0.911763 -0.410716
vn 0.000000 -0.911763 -0.410716
vn 0.000000 -0.936896 -0.349609
vn 0.000000 -0.936896 -0.349609
vn 0.000000 -0.952398 -0.304857
vn 0.000000 -0.952398 -0.304857
vn 0.000000 0.911763 0.410716
vn 0.000000 0.911763 0.410716
vn 0.000000 0.911763 0.410716
vn 0.000000 0.911763 0.410716
vn 1.000000 0.000000 -0.000000
vn 1.000000 -0.000000 0.000000
vn 1.000000 0.000000 -0.000000
vn 1.000000 -0.000000 0.000000
vn -1.000000 -0.000000 0.000000
vn -1.000000 0.000000 -0.000000
vn -1.000000 -0.000000 0.000000
vn -1.000000 0.000000 -0.000000
vn 0.000000 0.880059 0.474865
vn 0.000000 0.880059 0.474865
vn 1.000000 0.000000 -0.000000
vn 1.000000 -0.000000 0.000000
vn 0.000000 -0.829383 -0.558680
vn 0.000000 -0.829383 -0.558680
vn -1.000000 0.000000 -0.000000
vn -1.000000 -0.000000 0.000000
vn 0.000000 -0.880059 -0.474865
vn 0.000000 -0.880059 -0.474865
vn 1.000000 -0.000000 0.000000
vn 1.000000 0.000000 -0.000000
vn 0.000000 0.829383 0.558680
vn 0.000000 0.829383 0.558680
vn -1.000000 -0.000000 0.000000
vn -1.000000 0.000000 -0.000000
vn 0.000000 0.596917 0.802303
vn 0.000000 0.596917 0.802303
vn 1.000000 0.000000 -0.000000
vn 1.000000 -0.000000 0.000000
vn 0.000000 -0.515568 -0.856848
vn 0.000000 -0.515568 -0.856848
vn -1.000000 0.000000 -0.000000
vn -1.000000 0.000000 0.000000
vn 0.000000 -0.596917 -0.802303
vn 0.000000 -0.596917 -0.802303
vn 1.000000 -0.000000 0.000000
vn 1.000000 0.000000 -0.000000
vn 0.000000 0.515568 0.856848
vn 0.000000 0.515568 0.856848
vn -1.000000 -0.000000 0.000000
vn -1.000000 0.000000 0.000000
vn 0.000000 0.201923 0.979401
vn 0.000000 0.201923 0.979401
vn 1.000000 0.000000 -0.000000
vn 1.000000 -0.000000 0.000000
vn 0.000000 -0.105144 -0.994457
vn 0.000000 -0.105144 -0.994457
vn -1.000000 0.000000 -0.000000
vn -1.000000 0.000000 -0.000000
vn 0.000000 -0.201923 -0.979401
vn 0.000000 -0.201923 -0.979401
vn 1.000000 -0.000000 0.000000
vn 1.000000 0.000000 -0.000000
vn 0.000000 0.105144 0.994457
vn 0.000000 0.105144 0.994457
vn -1.000000 -0.000000 0.000000
vn -1.000000 -0.000000 0.000000
vn 0.000000 -0.230909 0.972975
vn 0.000000 -0.230909 0.972975
vn 1.000000 0.000000 -0.000000
vn 1.000000 -0.000000 0.000000
vn 0.000000 0.324983 -0.945720
vn 0.000000 0.324983 -0.945720
vn -1.000000 0.000000 -0.000000
vn -1.000000 -0.000000 0.000000
vn 0.000000 0.230909 -0.972975
vn 0.000000 0.230909 -0.972975
vn 1.000000 -0.000000 0.000000
vn 1.000000 0.000000 -0.000000
vn 0.000000 -0.324983 0.945720
vn 0.000000 -0.324983 0.945720
vn -1.000000 -0.000000 0.000000
vn -1.000000 0.000000 -0.000000
vn 0.000000 -0.620471 0.784229
vn 0.000000 -0.620471 0.784229
vn 1.000000 0.000000 0.000000
vn 1.000000 -0.000000 0.000000
vn 0.000000 0.694213 -0.719770
vn 0.000000 0.694213 -0.719770
vn -1.000000 -0.000000 0.000000
vn -1.000000 -0.000000 0.000000
vn 0.000000 0.620471 -0.784229
vn 0.000000 0.620471 -0.784229
vn 1.000000 0.000000 0.000000
vn 1.000000 0.000000 -0.000000
vn 0.000000 -0.694213 0.719770
vn 0.000000 -0.694213 0.719770
vn -1.000000 0.000000 -0.000000
vn -1.000000 0.000000 -0.000000
vn 0.000000 -0.893768 0.448530
vn 0.000000 -0.893767 0.448531
vn 1.000000 -0.000000 0.000000
vn 1.000000 -0.000000 0.000000
vn 0.000000 0.933358 -0.358946
vn 0.000000 0.933358 -0.358946
vn -1.000000 0.000000 -0.000000
vn -1.000000 -0.000000 0.000000
vn 0.000000 0.893768 -0.448530
vn 0.000000 0.893767 -0.448531
vn 1.000000 0.000000 -0.000000
vn 1.000000 0.000000 -0.000000
vn 0.000000 -0.933358 0.358946
vn 0.000000 -0.933358 0.358946
vn -1.000000 -0.000000 0.000000
vn -1.000000 0.000000 -0.000000
vn 0.000000 -0.999586 0.028784
vn 0.000000 -0.999586 0.028784
vn 1.000000 -0.000000 0.000000
vn 1.000000 0.000000 -0.000000
vn 0.000000 0.997607 0.069139
vn 0.000000 0.997607 0.069139
vn -1.000000 -0.000000 0.000000
vn -1.000000 -0.000000 0.000000
vn 0.000000 0.999586 -0.028784
vn 0.000000 0.999586 -0.028784
vn 1.000000 0.000000 -0.000000
vn 1.000000 -0.000000 0.000000
vn 0.000000 -0.997607 -0.069139
vn 0.000000 -0.997607 -0.069139
vn -1.000000 0.000000 -0.000000
vn -1.000000 0.000000 -0.000000
vn 0.000000 -0.918097 -0.396356
vn 0.000000 -0.918097 -0.396356
vn 1.000000 0.000000 -0.000000
vn 1.000000 0.000000 -0.000000
vn 0.000000 0.874920 0.484268
vn 0.000000 0.874920 0.484268
vn -1.000000 -0.000000 0.000000
vn -1.000000 0.000000 -0.000000
vn 0.000000 0.918097 0.396356
vn 0.000000 0.918097 0.396356
vn 1.000000 -0.000000 0.000000
vn 1.000000 -0.000000 0.000000
vn 0.000000 -0.874920 -0.484268
vn 0.000000 -0.874920 -0.484268
vn -1.000000 0.000000 -0.000000
vn -1.000000 -0.000000 0.000000
vn 0.000000 -0.664571 -0.747225
vn 0.000000 -0.664571 -0.747225
vn 1.000000 -0.000000 0.000000
vn 1.000000 0.000000 -0.000000
vn 0.000000 0.588286 0.808653
vn 0.000000 0.588286 0.808653
vn -1.000000 -0.000000 0.000000
vn -1.000000 0.000000 -0.000000
vn 0.000000 0.664571 0.747225
vn 0.000000 0.664571 0.747225
vn 1.000000 0.000000 -0.000000
vn 1.000000 -0.000000 0.000000
vn 0.000000 -0.588286 -0.808653
vn 0.000000 -0.588286 -0.808653
vn -1.000000 0.000000 -0.000000
vn -1.000000 -0.000000 0.000000
vn 0.000000 -0.286515 -0.958076
vn 0.000000 -0.286515 -0.958076
vn 1.000000 0.000000 -0.000000
vn 1.000000 0.000000 -0.000000
vn 0.000000 0.191416 0.981509
vn 0.000000 0.191416 0.981509
vn -1.000000 0.000000 -0.000000
vn -1.000000 0.000000 -0.000000
vn 0.000000 0.286515 0.958076
vn 0.000000 0.286515 0.958076
vn 1.000000 -0.000000 0.000000
vn 1.000000 -0.000000 0.000000
vn 0.000000 -0.191416 -0.981509
vn 0.000000 -0.191416 -0.981509
vn -1.000000 -0.000000 0.000000
vn -1.000000 -0.000000 0.000000
vn 0.000000 -0.072357 -0.997379
vn 0.000000 -0.072357 -0.997379
vn 1.000000 -0.000000 0.000000
vn 1.000000 0.000000 -0.000000
vn 0.000000 -0.025559 0.999673
vn 0.000000 -0.025559 0.999673
vn -1.000000 -0.000000 0.000000
vn -1.000000 0.000000 0.000000
vn 0.000000 0.072357 0.997379
vn 0.000000 0.072357 0.997379
vn 1.000000 0.000000 -0.000000
vn 1.000000 -0.000000 0.000000
vn 0.000000 0.025559 -0.999673
vn 0.000000 0.025559 -0.999673
vn -1.000000 0.000000 -0.000000
vn -1.000000 0.000000 0.000000
s 1
f 1/1/1 2/2/2 3/4/3
f 3/4/3 2/2/2 4/3/4
s 2
f 89/17/5 90/18/6 92/20/7
f 92/20/7 90/18/6 91/19/8
s 3
f 5/21/9 6/22/10 7/24/11
f 7/24/11 6/22/10 8/23/12
s 4
f 93/37/13 94/38/14 96/40/15
f 96/40/15 94/38/14 95/39/16
s 5
f 2/41/17 8/42/18 4/44/19
f 4/44/19 8/42/18 6/43/20
s 6
f 7/89/21 1/90/22 5/92/23
f 5/92/23 1/90/22 3/91/24
s 1
f 3/4/3 4/3/4 9/8/25
f 9/8/25 4/3/4 10/7/26
s 5
f 4/44/19 6/43/20 10/48/27
f 10/48/27 6/43/20 11/47/28
s 3
f 6/22/10 5/21/9 11/26/29
f 11/26/29 5/21/9 12/25/30
s 6
f 3/91/24 9/95/31 5/92/23
f 5/92/23 9/95/31 12/96/32
s 3
f 7/24/11 8/23/12 13/28/33
f 13/28/33 8/23/12 14/27/34
s 5
f 8/42/18 2/41/17 14/46/35
f 14/46/35 2/41/17 15/45/36
s 1
f 2/2/2 1/1/1 15/6/37
f 15/6/37 1/1/1 16/5/38
s 6
f 7/89/21 13/93/39 1/90/22
f 1/90/22 13/93/39 16/94/40
s 1
f 9/8/25 10/7/26 17/12/41
f 17/12/41 10/7/26 18/11/42
s 5
f 10/48/27 11/47/28 18/52/43
f 18/52/43 11/47/28 19/51/44
s 3
f 11/26/29 12/25/30 19/30/45
f 19/30/45 12/25/30 20/29/46
s 6
f 9/95/31 17/99/47 12/96/32
f 12/96/32 17/99/47 20/100/48
s 3
f 13/28/33 14/27/34 21/32/49
f 21/32/49 14/27/34 22/31/50
s 5
f 14/46/35 15/45/36 22/50/51
f 22/50/51 15/45/36 23/49/52
s 1
f 15/6/37 16/5/38 23/10/53
f 23/10/53 16/5/38 24/9/54
s 6
f 13/93/39 21/97/55 16/94/40
f 16/94/40 21/97/55 24/98/56
s 1
f 17/12/41 18/11/42 25/16/57
f 25/16/57 18/11/42 26/15/58
s 5
f 18/52/43 19/51/44 26/56/59
f 26/56/59 19/51/44 27/55/60
s 3
f 19/30/45 20/29/46 27/34/61
f 27/34/61 20/29/46 28/33/62
s 6
f 17/99/47 25/103/63 20/100/48
f 20/100/48 25/103/63 28/104/64
s 3
f 21/32/49 22/31/50 29/36/65
f 29/36/65 22/31/50 30/35/66
s 5
f 22/50/51 23/49/52 30/54/67
f 30/54/67 23/49/52 31/53/68
s 1
f 23/10/53 24/9/54 31/14/69
f 31/14/69 24/9/54 32/13/70
s 6
f 21/97/55 29/101/71 24/98/56
f 24/98/56 29/101/71 32/102/72
s 1
f 25/137/57 26/138/58 33/140/73
f 33/140/73 26/138/58 34/139/74
s 5
f 26/56/59 27/55/60 34/60/75
f 34/60/75 27/55/60 35/59/76
s 3
f 27/147/61 28/148/62 35/150/77
f 35/150/77 28/148/62 36/149/78
s 6
f 25/103/63 33/107/79 28/104/64
f 28/104/64 33/107/79 36/108/80
s 3
f 29/155/65 30/156/66 37/158/81
f 37/158/81 30/156/66 38/157/82
s 5
f 30/54/67 31/53/68 38/58/83
f 38/58/83 31/53/68 39/57/84
s 1
f 31/165/69 32/166/70 39/168/85
f 39/168/85 32/166/70 40/167/86
s 6
f 29/101/71 37/105/87 32/102/72
f 32/102/72 37/105/87 40/106/88
s 1
f 33/140/73 34/139/74 41/142/89
f 41/142/89 34/139/74 42/141/90
s 5
f 34/60/75 35/59/76 42/64/91
f 42/64/91 35/59/76 43/63/92
s 3
f 35/150/77 36/149/78 43/152/93
f 43/152/93 36/149/78 44/151/94
s 6
f 33/107/79 41/111/95 36/108/80
f 36/108/80 41/111/95 44/112/96
s 3
f 37/158/81 38/157/82 45/160/97
f 45/160/97 38/157/82 46/159/98
s 5
f 38/58/83 39/57/84 46/62/99
f 46/62/99 39/57/84 47/61/100
s 1
f 39/168/85 40/167/86 47/170/101
f 47/170/101 40/167/86 48/169/102
s 6
f 37/105/87 45/109/103 40/106/88
f 40/106/88 45/109/103 48/110/104
s 1
f 41/142/89 42/141/90 49/144/105
f 49/144/105 42/141/90 50/143/106
s 5
f 42/64/91 43/63/92 50/68/107
f 50/68/107 43/63/92 51/67/108
s 3
f 43/152/93 44/151/94 51/154/109
f 51/154/109 44/151/94 52/153/110
s 6
f 41/111/95 49/115/111 44/112/96
f 44/112/96 49/115/111 52/116/112
s 3
f 45/160/97 46/159/98 53/162/113
f 53/162/113 46/159/98 54/161/114
s 5
f 46/62/99 47/61/100 54/66/115
f 54/66/115 47/61/100 55/65/116
s 1
f 47/170/101 48/169/102 55/172/117
f 55/172/117 48/169/102 56/171/118
s 6
f 45/109/103 53/113/119 48/110/104
f 48/110/104 53/113/119 56/114/120
s 1
f 49/144/105 50/143/106 57/146/121
f 57/146/121 50/143/106 58/145/122
s 5
f 50/68/107 51/67/108 58/72/123
f 58/72/123 51/67/108 59/71/124
s 3
f 51/173/109 52/174/110 59/176/125
f 59/176/125 52/174/110 60/175/126
s 6
f 49/115/111 57/119/127 52/116/112
f 52/116/112 57/119/127 60/120/128
s 3
f 53/162/113 54/161/114 61/164/129
f 61/164/129 54/161/114 62/163/130
s 5
f 54/66/115 55/65/116 62/70/131
f 62/70/131 55/65/116 63/69/132
s 1
f 55/183/117 56/184/118 63/186/133
f 63/186/133 56/184/118 64/185/134
s 6
f 53/113/119 61/117/135 56/114/120
f 56/114/120 61/117/135 64/118/136
s 1
f 57/193/121 58/194/122 65/196/137
f 65/196/137 58/194/122 66/195/138
s 5
f 58/72/123 59/71/124 66/76/139
f 66/76/139 59/71/124 67/75/140
s 3
f 59/176/125 60/175/126 67/178/141
f 67/178/141 60/175/126 68/177/142
s 6
f 57/119/127 65/123/143 60/120/128
f 60/120/128 65/123/143 68/124/144
s 3
f 61/201/129 62/202/130 69/204/145
f 69/204/145 62/202/130 70/203/146
s 5
f 62/70/131 63/69/132 70/74/147
f 70/74/147 63/69/132 71/73/148
s 1
f 63/186/133 64/185/134 71/188/149
f 71/188/149 64/185/134 72/187/150
s 6
f 61/117/135 69/121/151 64/118/136
f 64/118/136 69/121/151 72/122/152
s 1
f 65/196/137 66/195/138 73/198/153
f 73/198/153 66/195/138 74/197/154
s 5
f 66/76/139 67/75/140 74/80/155
f 74/80/155 67/75/140 75/79/156
s 3
f 67/178/141 68/177/142 75/180/157
f 75/180/157 68/177/142 76/179/158
s 6
f 65/123/143 73/127/159 68/124/144
f 68/124/144 73/127/159 76/128/160
s 3
f 69/204/145 70/203/146 77/206/161
f 77/206/161 70/203/146 78/205/162
s 5
f 70/74/147 71/73/148 78/78/163
f 78/78/163 71/73/148 79/77/164
s 1
f 71/188/149 72/187/150 79/190/165
f 79/190/165 72/187/150 80/189/166
s 6
f 69/121/151 77/125/167 72/122/152
f 72/122/152 77/125/167 80/126/168
s 1
f 73/198/153 74/197/154 81/200/169
f 81/200/169 74/197/154 82/199/170
s 5
f 74/80/155 75/79/156 82/84/171
f 82/84/171 75/79/156 83/83/172
s 3
f 75/180/157 76/179/158 83/182/173
f 83/182/173 76/179/158 84/181/174
s 6
f 73/127/159 81/131/175 76/128/160
f 76/128/160 81/131/175 84/132/176
s 3
f 77/206/161 78/205/162 85/208/177
f 85/208/177 78/205/162 86/207/178
s 5
f 78/78/163 79/77/164 86/82/179
f 86/82/179 79/77/164 87/81/180
s 1
f 79/190/165 80/189/166 87/192/181
f 87/192/181 80/189/166 88/191/182
s 6
f 77/125/167 85/129/183 80/126/168
f 80/126/168 85/129/183 88/130/184
s 1
f 81/209/169 82/210/170 89/212/185
f 89/212/185 82/210/170 90/211/186
s 5
f 82/84/171 83/83/172 90/88/187
f 90/88/187 83/83/172 91/87/188
s 3
f 83/213/173 84/214/174 91/216/189
f 91/216/189 84/214/174 92/215/190
s 6
f 81/131/175 89/135/191 84/132/176
f 84/132/176 89/135/191 92/136/192
s 3
f 85/217/177 86/218/178 93/220/193
f 93/220/193 86/218/178 94/219/194
s 5
f 86/82/179 87/81/180 94/86/195
f 94/86/195 87/81/180 95/85/196
s 1
f 87/221/181 88/222/182 95/224/197
f 95/224/197 88/222/182 96/223/198
s 6
f 85/129/183 93/133/199 88/130/184
f 88/130/184 93/133/199 96/134/200
