# This file uses centimeters as units for non-parametric coordinates.

v 0.433013 -0.500000 -0.250000
v 0.221705 -0.496936 -0.270019
v 0.000000 -0.500000 -0.500000
v -0.157310 -0.496936 -0.182208
v -0.433013 -0.500000 -0.250000
v -0.106801 -0.496936 -0.014635
v -0.433013 -0.500000 0.250000
v -0.239267 -0.496936 0.231968
v 0.000001 -0.500000 0.500000
v 0.040228 -0.496936 0.103178
v 0.433013 -0.500000 0.250000
v 0.346818 -0.496936 0.000000
v 0.433013 0.500000 -0.250000
v 0.221705 0.496936 -0.270019
v -0.000001 0.500000 -0.500000
v -0.157310 0.496936 -0.182208
v -0.433013 0.500000 -0.250000
v -0.106801 0.496936 -0.014635
v -0.433012 0.500000 0.250000
v -0.239267 0.496936 0.231968
v 0.000000 0.500000 0.500000
v 0.040228 0.496936 0.103178
v 0.433013 0.500000 0.250000
v 0.346818 0.496936 0.000000
v 0.000000 -0.500000 0.000000
v 0.000000 0.500000 0.000000
vt 0.144500 0.331662
vt 0.074838 0.330652
vt 0.144500 0.001992
vt 0.074838 0.003002
vt 0.001749 0.331662
vt 0.001748 0.001992
vt 0.150721 0.001992
vt 0.255487 0.003002
vt 0.150721 0.331662
vt 0.255487 0.330652
vt 0.352786 0.330652
vt 0.261895 0.331662
vt 0.352786 0.003002
vt 0.261895 0.001992
vt 0.530422 0.001992
vt 0.594295 0.003002
vt 0.530423 0.331662
vt 0.594295 0.330652
vt 0.673174 0.001992
vt 0.673174 0.331662
vt 0.679224 0.001992
vt 0.810044 0.003002
vt 0.679224 0.331662
vt 0.810044 0.330652
vt 0.746345 0.336175
vt 0.875834 0.335165
vt 0.746345 0.663825
vt 0.875834 0.664835
vt 0.576125 0.335165
vt 0.658543 0.336175
vt 0.576125 0.664835
vt 0.658543 0.663825
vt 0.740960 0.335165
vt 0.740960 0.664835
vt 0.501079 0.410983
vt 0.570741 0.417582
vt 0.427990 0.500000
vt 0.542325 0.500000
vt 0.427990 0.335165
vt 0.570741 0.582417
vt 0.376129 0.439931
vt 0.441252 0.534015
vt 0.285238 0.417582
vt 0.427990 0.664835
vt 0.392781 0.495175
vt 0.349111 0.576473
vt 0.285238 0.582417
vt 0.287251 0.915590
vt 0.217589 0.922190
vt 0.144500 0.833173
vt 0.144499 0.998008
vt 0.258835 0.833173
vt 0.092639 0.893242
vt 0.287251 0.750755
vt 0.001748 0.915590
vt 0.157762 0.799158
vt 0.109290 0.837998
vt 0.144500 0.668338
vt 0.001748 0.750755
vt 0.065620 0.756700
vt 0.359386 0.001992
vt 0.436978 0.003002
vt 0.359386 0.331662
vt 0.436978 0.330652
vt 0.524221 0.001992
vt 0.524221 0.331662
vn -0.264643 0.000000 -0.964347
vn -0.264643 0.000000 -0.964346
vn -0.264644 0.000000 -0.964346
vn -0.264644 0.000000 -0.964346
vn -0.264643 0.000000 -0.964346
vn -0.264644 0.000000 -0.964346
vn 0.967470 0.000000 -0.252985
vn 0.967470 0.000000 -0.252985
vn 0.967470 0.000001 -0.252986
vn 0.967470 0.000001 -0.252986
vn 0.967470 0.000000 -0.252985
vn 0.967470 0.000001 -0.252987
vn -0.967470 -0.000001 -0.252985
vn -0.967470 0.000000 -0.252985
vn -0.967471 0.000000 -0.252984
vn -0.967471 0.000000 -0.252984
vn -0.967470 0.000000 -0.252985
vn -0.967471 0.000000 -0.252984
vn 0.264643 0.000000 -0.964346
vn 0.264643 0.000000 -0.964346
vn 0.264643 0.000000 -0.964346
vn 0.264643 0.000000 -0.964346
vn 0.264643 0.000000 -0.964346
vn 0.264643 0.000000 -0.964346
vn -0.702826 0.000000 0.711362
vn -0.702826 0.000000 0.711362
vn -0.702826 0.000000 0.711362
vn -0.702826 0.000000 0.711362
vn -0.702826 0.000000 0.711362
vn -0.702826 0.000000 0.711361
vn -0.702827 0.000000 -0.711361
vn -0.702827 0.000000 -0.711361
vn -0.702827 0.000000 -0.711360
vn -0.702827 0.000000 -0.711360
vn -0.702827 0.000000 -0.711361
vn -0.702827 0.000000 -0.711360
vn 0.264644 0.000000 0.964346
vn 0.264644 0.000000 0.964346
vn 0.264644 0.000000 0.964346
vn 0.264644 0.000000 0.964346
vn 0.264644 0.000000 0.964346
vn 0.264644 0.000000 0.964346
vn -0.967470 0.000000 0.252987
vn -0.967470 0.000000 0.252986
vn -0.967470 0.000000 0.252985
vn -0.967470 0.000000 0.252985
vn -0.967470 0.000000 0.252986
vn -0.967470 -0.000001 0.252985
vn 0.967471 0.000001 0.252984
vn 0.967471 0.000000 0.252984
vn 0.967470 0.000000 0.252985
vn 0.967470 0.000000 0.252985
vn 0.967471 0.000000 0.252984
vn 0.967470 0.000000 0.252985
vn -0.264644 0.000000 0.964346
vn -0.264644 0.000000 0.964346
vn -0.264644 0.000000 0.964346
vn -0.264644 0.000000 0.964346
vn -0.264644 0.000000 0.964346
vn -0.264644 0.000000 0.964346
vn 0.702826 0.000000 -0.711362
vn 0.702826 0.000000 -0.711362
vn 0.702827 0.000000 -0.711361
vn 0.702827 0.000000 -0.711361
vn 0.702826 0.000000 -0.711362
vn 0.702827 0.000000 -0.711361
vn 0.702826 0.000000 0.711362
vn 0.702826 0.000000 0.711362
vn 0.702827 0.000000 0.711361
vn 0.702827 0.000000 0.711361
vn 0.702826 0.000000 0.711362
vn 0.702827 0.000001 0.711361
vn 0.008512 -0.999855 -0.014743
vn 0.000001 -1.000000 -0.000001
vn 0.000000 -1.000000 0.000000
vn 0.000000 -1.000000 -0.000001
vn 0.008512 -0.999855 -0.014743
vn 0.000000 -1.000000 0.000000
vn -0.008512 -0.999855 -0.014743
vn 0.000000 -1.000000 -0.000001
vn 0.000000 -1.000000 0.000000
vn -0.000001 -1.000000 -0.000001
vn -0.008512 -0.999855 -0.014743
vn 0.000000 -1.000000 0.000000
vn -0.017024 -0.999855 0.000000
vn -0.000001 -1.000000 -0.000001
vn 0.000000 -1.000000 0.000000
vn -0.000001 -1.000000 0.000000
vn -0.017024 -0.999855 0.000000
vn 0.000000 -1.000000 0.000000
vn -0.008512 -0.999855 0.014743
vn -0.000001 -1.000000 0.000000
vn 0.000000 -1.000000 0.000000
vn 0.000000 -1.000000 0.000001
vn -0.008512 -0.999855 0.014743
vn 0.000000 -1.000000 0.000000
vn 0.008510 -0.999855 0.014743
vn 0.000000 -1.000000 0.000001
vn 0.000000 -1.000000 0.000000
vn -0.000001 -1.000000 -0.000001
vn 0.008510 -0.999855 0.014743
vn 0.000000 -1.000000 0.000000
vn 0.017024 -0.999855 -0.000002
vn -0.000001 -1.000000 -0.000001
vn 0.000000 -1.000000 0.000000
vn 0.000001 -1.000000 -0.000001
vn 0.017024 -0.999855 -0.000002
vn 0.000000 -1.000000 0.000000
vn 0.000001 1.000000 -0.000001
vn 0.008512 0.999855 -0.014743
vn -0.000000 1.000000 -0.000000
vn 0.008512 0.999855 -0.014743
vn 0.000000 1.000000 -0.000001
vn -0.000000 1.000000 -0.000000
vn 0.000000 1.000000 -0.000001
vn -0.008512 0.999855 -0.014743
vn -0.000000 1.000000 -0.000000
vn -0.008512 0.999855 -0.014743
vn -0.000001 1.000000 -0.000000
vn -0.000000 1.000000 -0.000000
vn -0.000001 1.000000 -0.000000
vn -0.017024 0.999855 0.000000
vn -0.000000 1.000000 -0.000000
vn -0.017024 0.999855 0.000000
vn -0.000001 1.000000 0.000000
vn -0.000000 1.000000 -0.000000
vn -0.000001 1.000000 0.000000
vn -0.008513 0.999855 0.014742
vn -0.000000 1.000000 -0.000000
vn -0.008513 0.999855 0.014742
vn 0.000000 1.000000 0.000000
vn -0.000000 1.000000 -0.000000
vn 0.000000 1.000000 0.000000
vn 0.008512 0.999855 0.014743
vn -0.000000 1.000000 -0.000000
vn 0.008512 0.999855 0.014743
vn 0.000000 1.000000 0.000000
vn -0.000000 1.000000 -0.000000
vn 0.000000 1.000000 0.000000
vn 0.017024 0.999855 -0.000001
vn -0.000000 1.000000 -0.000000
vn 0.017024 0.999855 -0.000001
vn 0.000001 1.000000 -0.000001
vn -0.000000 1.000000 -0.000000
s off
f 1/1/1 2/2/2 13/3/3
f 13/3/4 2/2/5 14/4/6
f 2/2/7 3/5/8 14/4/9
f 14/4/10 3/5/11 15/6/12
f 3/7/13 4/8/14 15/9/15
f 15/9/16 4/8/17 16/10/18
f 4/11/19 5/12/20 16/13/21
f 16/13/22 5/12/23 17/14/24
f 5/61/25 6/62/26 17/63/27
f 17/63/28 6/62/29 18/64/30
f 6/62/31 7/65/32 18/64/33
f 18/64/34 7/65/35 19/66/36
f 7/15/37 8/16/38 19/17/39
f 19/17/40 8/16/41 20/18/42
f 8/16/43 9/19/44 20/18/45
f 20/18/46 9/19/47 21/20/48
f 9/21/49 10/22/50 21/23/51
f 21/23/52 10/22/53 22/24/54
f 10/25/55 11/26/56 22/27/57
f 22/27/58 11/26/59 23/28/60
f 11/29/61 12/30/62 23/31/63
f 23/31/64 12/30/65 24/32/66
f 12/30/67 1/33/68 24/32/69
f 24/32/70 1/33/71 13/34/72
f 2/35/73 1/36/74 25/37/75
f 3/39/76 2/35/77 25/37/78
f 4/41/79 3/39/80 25/37/81
f 5/43/82 4/41/83 25/37/84
f 6/45/85 5/43/86 25/37/87
f 7/47/88 6/45/89 25/37/90
f 8/46/91 7/47/92 25/37/93
f 9/44/94 8/46/95 25/37/96
f 10/42/97 9/44/98 25/37/99
f 11/40/100 10/42/101 25/37/102
f 12/38/103 11/40/104 25/37/105
f 1/36/106 12/38/107 25/37/108
f 13/48/109 14/49/110 26/50/111
f 14/49/112 15/51/113 26/50/114
f 15/51/115 16/53/116 26/50/117
f 16/53/118 17/55/119 26/50/120
f 17/55/121 18/57/122 26/50/123
f 18/57/124 19/59/125 26/50/126
f 19/59/127 20/60/128 26/50/129
f 20/60/130 21/58/131 26/50/132
f 21/58/133 22/56/134 26/50/135
f 22/56/136 23/54/137 26/50/138
f 23/54/139 24/52/140 26/50/141
f 24/52/142 13/48/143 26/50/144
