# This file uses centimeters as units for non-parametric coordinates.

v -1.000000 1.001910 1.500000
v -0.779924 1.001910 1.500000
v 0.779925 1.001910 1.500000
v 1.000000 1.001910 1.500000
v -1.000000 1.101910 1.500239
v 1.000662 1.101910 1.500239
v -1.000000 1.101910 -1.500000
v 1.000184 1.101910 -1.500000
v -1.000000 1.001910 -1.500000
v -0.779924 1.001910 -1.500000
v 0.779925 1.001910 -1.500000
v 1.000000 1.001910 -1.500000
v -1.000000 1.001910 -1.315932
v -0.781744 1.001910 -1.331095
v 0.781744 1.001910 -1.331095
v 1.000000 1.001910 -1.315932
v -1.000000 1.001910 1.315932
v -0.781744 1.001910 1.331095
v 0.781744 1.001910 1.331095
v 1.000000 1.001910 1.315932
v -1.000000 -0.012198 -1.500000
v -0.779924 -0.012198 -1.500000
v -0.781744 -0.012198 -1.331095
v -1.000000 -0.012198 -1.315932
v 0.779925 -0.012198 -1.500000
v 1.000000 -0.012198 -1.500000
v 1.000000 -0.012198 -1.315932
v 0.781744 -0.012198 -1.331095
v -1.000000 -0.012198 1.315932
v -0.781744 -0.012198 1.331095
v -0.779924 -0.012198 1.500000
v -1.000000 -0.012198 1.500000
v 0.781744 -0.012198 1.331095
v 1.000000 -0.012198 1.315932
v 1.000000 -0.012198 1.500000
v 0.779925 -0.012198 1.500000
vt 0.557571 0.832728
vt 0.557571 0.796330
vt 0.574110 0.832728
vt 0.389848 0.796330
vt 0.574110 0.501840
vt 0.389848 0.832728
vt 0.557571 0.538348
vt 0.557571 0.501950
vt 0.389848 0.501950
vt 0.389848 0.538348
vt 0.001817 0.001992
vt 0.332705 0.001992
vt 0.001817 0.498199
vt 0.332626 0.498199
vt 0.216529 0.832649
vt 0.199990 0.832649
vt 0.216529 0.796251
vt 0.199990 0.501840
vt 0.384251 0.832649
vt 0.216529 0.538269
vt 0.384251 0.796251
vt 0.216529 0.501871
vt 0.384251 0.538269
vt 0.384251 0.501871
vt 0.186911 0.836291
vt 0.214846 0.836592
vt 0.186911 0.872689
vt 0.217354 0.872689
vt 0.616105 0.501840
vt 0.874087 0.501840
vt 0.615804 0.529776
vt 0.874388 0.529776
vt 0.615804 0.970073
vt 0.874388 0.970073
vt 0.579707 0.967565
vt 0.910485 0.532283
vt 0.616105 0.998008
vt 0.579707 0.532283
vt 0.910485 0.967565
vt 0.874087 0.998008
vt 0.224249 0.872689
vt 0.224249 0.836291
vt 0.252184 0.872388
vt 0.254692 0.836291
vt 0.112233 0.709602
vt 0.114741 0.673505
vt 0.142676 0.709602
vt 0.142676 0.673204
vt 0.149572 0.673204
vt 0.180015 0.673204
vt 0.152080 0.709301
vt 0.180015 0.709602
vt 0.507544 0.001992
vt 0.524083 0.001992
vt 0.507544 0.032435
vt 0.524083 0.498199
vt 0.339822 0.001992
vt 0.507544 0.467717
vt 0.339822 0.032435
vt 0.507544 0.498160
vt 0.339822 0.467717
vt 0.339822 0.498160
vt 0.697794 0.498199
vt 0.697794 0.467756
vt 0.714333 0.498199
vt 0.530071 0.467756
vt 0.714333 0.001992
vt 0.530071 0.498199
vt 0.697794 0.032474
vt 0.697794 0.002032
vt 0.530071 0.002032
vt 0.530071 0.032474
vt 0.194393 0.669563
vt 0.166458 0.669563
vt 0.194393 0.501840
vt 0.166458 0.501840
vt 0.160860 0.669563
vt 0.124763 0.669563
vt 0.160860 0.501840
vt 0.124763 0.501840
vt 0.119166 0.669563
vt 0.083069 0.669563
vt 0.119166 0.501840
vt 0.083069 0.501840
vt 0.077471 0.669563
vt 0.049536 0.669563
vt 0.077471 0.501840
vt 0.049536 0.501840
vt 0.007842 0.501840
vt 0.043939 0.501840
vt 0.007842 0.669563
vt 0.043939 0.669563
vt 0.029752 0.840927
vt 0.001817 0.840927
vt 0.029752 0.673204
vt 0.001817 0.673204
vt 0.035778 0.673204
vt 0.071875 0.673204
vt 0.035778 0.840927
vt 0.071875 0.840927
vt 0.106386 0.840927
vt 0.078451 0.840927
vt 0.106386 0.673204
vt 0.078451 0.673204
vn 0.000000 -0.000214 1.000000
vn 0.000000 -0.001459 0.999999
vn 0.000000 -0.002389 0.999997
vn 0.000000 -0.002390 0.999997
vn 0.000000 -0.001321 0.999999
vn 0.000000 -0.000215 1.000000
vn 0.000000 1.000000 0.000000
vn 0.016109 0.999870 -0.000000
vn 0.000000 1.000000 0.000000
vn 0.017931 0.999839 -0.000003
vn 0.000000 0.000000 -1.000000
vn 0.000000 0.000000 -1.000000
vn 0.000000 0.000000 -1.000000
vn 0.000000 0.000000 -1.000000
vn 0.000000 0.000000 -1.000000
vn 0.000000 0.000000 -1.000000
vn 0.000000 -1.000000 0.000000
vn 0.000000 -1.000000 0.000000
vn 0.000000 -1.000000 0.000000
vn 0.000000 -1.000000 0.000000
vn 0.000000 -1.000000 -0.000000
vn 0.000000 -1.000000 -0.000000
vn 0.000000 -1.000000 -0.000000
vn 0.000000 -1.000000 0.000000
vn 0.000000 -1.000000 -0.000000
vn 0.000000 -1.000000 -0.000000
vn 0.000000 -1.000000 -0.000000
vn 0.000000 -1.000000 0.000000
vn 0.000000 -1.000000 0.000000
vn 0.000000 -1.000000 0.000000
vn 0.000000 -1.000000 -0.000000
vn 0.000000 -1.000000 0.000000
vn 0.000000 -1.000000 0.000000
vn 0.000000 -1.000000 0.000000
vn 0.000000 -1.000000 0.000000
vn 0.000000 -1.000000 0.000000
vn 0.000000 -1.000000 0.000000
vn 0.000000 -1.000000 0.000000
vn 0.000000 -1.000000 -0.000001
vn 0.000000 -1.000000 0.000001
vn 0.000000 -1.000000 0.000000
vn 0.000000 -1.000000 0.000000
vn 0.000000 -1.000000 0.000000
vn 0.000000 -1.000000 0.000000
vn 1.000000 -0.000165 0.000000
vn 0.999999 -0.001598 -0.000114
vn 0.999989 -0.004673 0.000000
vn 1.000000 -0.000595 0.000000
vn -1.000000 0.000000 0.000000
vn -1.000000 0.000000 0.000000
vn -1.000000 0.000000 0.000000
vn -1.000000 0.000000 0.000000
vn -1.000000 0.000000 0.000000
vn -1.000000 0.000000 0.000000
vn 0.000000 0.000000 -1.000000
vn 0.000000 0.000000 -1.000000
vn 0.999942 0.000000 0.010771
vn 0.999942 0.000000 0.010771
vn 0.999942 0.000000 0.010771
vn 0.999942 0.000000 0.010771
vn 0.069308 0.000000 0.997595
vn 0.069308 0.000000 0.997595
vn 0.069308 0.000000 0.997595
vn 0.069308 0.000000 0.997595
vn -1.000000 0.000000 0.000000
vn -1.000000 0.000000 0.000000
vn 0.000000 0.000000 -1.000000
vn 0.000000 0.000000 -1.000000
vn 1.000000 0.000000 0.000000
vn 1.000000 0.000000 0.000000
vn -0.069308 0.000000 0.997595
vn -0.069308 0.000000 0.997595
vn -0.069308 0.000000 0.997595
vn -0.069308 0.000000 0.997595
vn -0.999942 0.000000 0.010771
vn -0.999942 0.000000 0.010771
vn -0.999942 0.000000 0.010771
vn -0.999942 0.000000 0.010771
vn 0.069308 0.000000 -0.997595
vn 0.069308 0.000000 -0.997595
vn 0.069308 0.000000 -0.997595
vn 0.069308 0.000000 -0.997595
vn 0.999942 0.000000 -0.010771
vn 0.999942 0.000000 -0.010771
vn 0.999942 0.000000 -0.010771
vn 0.999942 0.000000 -0.010771
vn 0.000000 0.000000 1.000000
vn 0.000000 0.000000 1.000000
vn -1.000000 0.000000 0.000000
vn -1.000000 0.000000 0.000000
vn -0.069308 0.000000 -0.997595
vn -0.069308 0.000000 -0.997595
vn -0.069308 0.000000 -0.997595
vn -0.069308 0.000000 -0.997595
vn 1.000000 0.000000 0.000000
vn 1.000000 0.000000 0.000000
vn 0.000000 0.000000 1.000000
vn 0.000000 0.000000 1.000000
vn -0.999942 0.000000 -0.010771
vn -0.999942 0.000000 -0.010771
vn -0.999942 0.000000 -0.010771
vn -0.999942 0.000000 -0.010771
s 1
f 1/1/1 2/2/2 5/3/3
f 2/2/2 6/5/4 5/3/3
f 2/2/2 3/7/5 6/5/4
f 3/7/5 4/8/6 6/5/4
s 2
f 5/11/7 6/12/8 7/13/9
f 7/13/9 6/12/8 8/14/10
s 3
f 9/15/11 7/16/12 10/17/13
f 7/16/12 8/18/14 10/17/13
f 8/18/14 11/20/15 10/17/13
f 8/18/14 12/22/16 11/20/15
s 4
f 22/25/17 23/26/18 21/27/19
f 21/27/19 23/26/18 24/28/20
s 5
f 10/29/21 11/30/22 14/31/23
f 14/31/23 11/30/22 15/32/24
s 6
f 25/41/25 26/42/26 28/43/27
f 28/43/27 26/42/26 27/44/28
s 5
f 13/38/29 14/31/23 17/35/30
f 17/35/30 14/31/23 18/33/31
f 14/31/23 15/32/24 18/33/31
f 18/33/31 15/32/24 19/34/32
f 15/32/24 16/36/33 19/34/32
f 19/34/32 16/36/33 20/39/34
s 8
f 29/45/35 30/46/36 32/47/37
f 32/47/37 30/46/36 31/48/38
s 5
f 18/33/31 19/34/32 2/37/39
f 2/37/39 19/34/32 3/40/40
s 9
f 34/49/41 35/50/42 33/51/43
f 33/51/43 35/50/42 36/52/44
s 2
f 12/53/45 8/54/10 16/55/46
f 16/55/46 8/54/10 6/56/8
f 20/58/47 16/55/46 6/56/8
f 4/60/48 20/58/47 6/56/8
s 10
f 9/63/49 13/64/50 7/65/51
f 13/64/50 5/67/52 7/65/51
f 13/64/50 17/69/53 5/67/52
f 17/69/53 1/70/54 5/67/52
s 3
f 9/15/11 10/17/13 21/19/55
f 21/19/55 10/17/13 22/21/56
s 11
f 10/73/57 14/74/58 22/75/59
f 22/75/59 14/74/58 23/76/60
s 12
f 14/77/61 13/78/62 23/79/63
f 23/79/63 13/78/62 24/80/64
s 10
f 13/64/50 9/63/49 24/66/65
f 24/66/65 9/63/49 21/68/66
s 3
f 11/20/15 12/22/16 25/23/67
f 25/23/67 12/22/16 26/24/68
s 2
f 12/53/45 16/55/46 26/57/69
f 26/57/69 16/55/46 27/59/70
s 13
f 16/81/71 15/82/72 27/83/73
f 27/83/73 15/82/72 28/84/74
s 14
f 15/85/75 11/86/76 28/87/77
f 28/87/77 11/86/76 25/88/78
s 15
f 17/89/79 18/90/80 29/91/81
f 29/91/81 18/90/80 30/92/82
s 16
f 18/93/83 2/94/84 30/95/85
f 30/95/85 2/94/84 31/96/86
s 1
f 2/2/2 1/1/1 31/4/87
f 31/4/87 1/1/1 32/6/88
s 10
f 1/70/54 17/69/53 32/71/89
f 32/71/89 17/69/53 29/72/90
s 17
f 19/97/91 20/98/92 33/99/93
f 33/99/93 20/98/92 34/100/94
s 2
f 20/58/47 4/60/48 34/61/95
f 34/61/95 4/60/48 35/62/96
s 1
f 4/8/6 3/7/5 35/9/97
f 35/9/97 3/7/5 36/10/98
s 18
f 3/101/99 19/102/100 36/103/101
f 36/103/101 19/102/100 33/104/102
