# This file uses centimeters as units for non-parametric coordinates.

v -0.100000 -0.500000 0.100000
v 0.100000 -0.500000 0.100000
v -0.100000 0.323256 0.100000
v 0.121213 0.278633 0.100000
v -0.127197 0.463788 0.100000
v 0.093213 0.578522 0.100000
v -0.127197 0.463788 -0.100000
v 0.156906 0.536212 -0.148795
v -0.100000 0.323256 -0.100000
v 0.121213 0.278633 -0.100000
v -0.100000 -0.500000 -0.100000
v 0.100000 -0.500000 -0.100000
v 0.292312 0.665892 -0.197064
v 0.301851 0.637596 0.092115
v 0.163532 0.786902 -0.352830
v 0.219121 0.724939 0.072545
v -0.278205 0.939973 0.177180
v -0.091779 1.012398 0.177180
v -0.091779 1.012398 -0.100000
v -0.278205 0.939973 -0.100000
v -0.391297 1.235222 0.123907
v -0.133554 1.271500 0.145631
v -0.168299 1.209367 -0.100000
v -0.354725 1.136943 -0.100000
v 0.418720 0.785863 -0.098306
v 0.418720 0.746989 0.072545
v 0.298606 0.857160 -0.098306
v 0.298606 0.818286 0.072545
v 0.183606 0.812805 -0.384104
v 0.271420 0.755571 -0.416943
v 0.245885 0.917341 -0.399499
v 0.333639 0.860019 -0.432783
v 0.587729 0.988201 -0.072545
v 0.587729 0.988201 0.072545
v 0.487864 1.059499 -0.072545
v 0.487864 1.059499 0.072545
v -0.347627 1.152595 0.590840
v -0.033003 1.179795 0.604350
v -0.168299 1.400898 0.527951
v -0.399468 1.378944 0.514440
v -0.508663 1.533193 0.100000
v -0.322237 1.605617 0.100000
v -0.322237 1.605617 -0.100000
v -0.508663 1.533193 -0.100000
v 0.685357 1.242163 -0.072545
v 0.685357 1.242163 0.072545
v 0.502422 1.260841 -0.072545
v 0.502422 1.260841 0.072545
v 0.658420 1.379176 -0.072545
v 0.658420 1.379176 0.072545
v 0.550043 1.371856 -0.072545
v 0.550043 1.371856 0.072545
v 0.961472 1.476285 -0.072545
v 0.961472 1.476285 0.072545
v 0.923934 1.582498 -0.072545
v 0.923934 1.582498 0.072545
v 0.283199 1.303534 0.072545
v 0.283199 1.303534 -0.072545
v 0.302333 1.414549 0.072545
v 0.302333 1.414549 -0.072545
v -0.346458 1.227076 0.823690
v -0.091779 1.293830 0.781342
v -0.168299 1.475380 0.704943
v -0.354725 1.408626 0.747290
v -0.073619 0.788757 0.824210
v 0.033898 0.827256 0.808009
v 0.033898 0.874096 0.919316
v -0.073619 0.835597 0.935517
v -0.935919 1.435095 0.677547
v -0.894473 1.560083 0.616742
v -0.904891 1.485801 0.802924
v -0.863445 1.610788 0.742119
vt 0.375000 0.000000
vt 0.625000 0.000000
vt 0.375000 0.125000
vt 0.625000 0.125000
vt 0.375000 0.250000
vt 0.625000 0.250000
vt 0.375000 0.250000
vt 0.625000 0.250000
vt 0.375000 0.500000
vt 0.625000 0.500000
vt 0.625000 0.500000
vt 0.625000 0.625000
vt 0.375000 0.500000
vt 0.375000 0.625000
vt 0.375000 0.750000
vt 0.625000 0.750000
vt 0.375000 1.000000
vt 0.625000 1.000000
vt 0.875000 0.000000
vt 0.875000 0.125000
vt 0.625000 0.125000
vt 0.875000 0.125000
vt 0.625000 0.250000
vt 0.875000 0.250000
vt 0.125000 0.000000
vt 0.125000 0.125000
vt 0.125000 0.250000
vt 0.625000 0.125000
vt 0.875000 0.125000
vt 0.875000 0.250000
vt 0.875000 0.250000
vt 0.625000 0.250000
vt 0.375000 0.250000
vt 0.625000 0.250000
vt 0.625000 0.500000
vt 0.375000 0.500000
vt 0.375000 0.250000
vt 0.625000 0.250000
vt 0.375000 0.250000
vt 0.625000 0.250000
vt 0.625000 0.250000
vt 0.625000 0.500000
vt 0.375000 0.500000
vt 0.375000 0.250000
vt 0.625000 0.125000
vt 0.875000 0.125000
vt 0.875000 0.125000
vt 0.875000 0.250000
vt 0.875000 0.125000
vt 0.875000 0.250000
vt 0.875000 0.250000
vt 0.625000 0.250000
vt 0.625000 0.125000
vt 0.875000 0.125000
vt 0.875000 0.250000
vt 0.625000 0.250000
vt 0.375000 0.250000
vt 0.625000 0.250000
vt 0.625000 0.250000
vt 0.375000 0.250000
vt 0.625000 0.125000
vt 0.875000 0.125000
vt 0.875000 0.250000
vt 0.625000 0.250000
vt 0.625000 0.125000
vt 0.875000 0.125000
vt 0.625000 0.125000
vt 0.875000 0.125000
vt 0.875000 0.250000
vt 0.625000 0.250000
vt 0.875000 0.250000
vt 0.625000 0.250000
vt 0.375000 0.250000
vt 0.625000 0.250000
vt 0.375000 0.250000
vt 0.625000 0.250000
vt 0.375000 0.250000
vt 0.375000 0.250000
vt 0.375000 0.250000
vt 0.375000 0.250000
vn 0.000000 0.000000 1.000000
vn 0.000000 0.000000 1.000000
vn 0.000000 0.000000 1.000000
vn 0.000000 0.000000 1.000000
vn 0.000000 0.000000 1.000000
vn 0.010095 0.000322 0.999949
vn 0.000000 0.000000 1.000000
vn 0.010095 0.000322 0.999949
vn 0.000000 0.000000 1.000000
vn 0.000000 0.000000 1.000000
vn 0.010095 0.000322 0.999949
vn 0.040908 0.004632 0.999152
vn -0.362121 0.932131 0.000000
vn -0.362121 0.932131 0.000000
vn -0.362121 0.932131 0.000000
vn -0.362121 0.932131 0.000000
vn -0.362121 0.932131 0.000000
vn -0.362121 0.932131 0.000000
vn 0.040908 0.004632 -0.999152
vn 0.010095 0.000322 -0.999949
vn -0.000000 0.000000 -1.000000
vn -0.000000 0.000000 -1.000000
vn 0.010095 0.000322 -0.999949
vn 0.000000 0.000000 -1.000000
vn 0.000000 0.000000 -1.000000
vn 0.010095 0.000322 -0.999949
vn 0.000000 0.000000 -1.000000
vn 0.000000 0.000000 -1.000000
vn 0.010095 0.000322 -0.999949
vn 0.000000 0.000000 -1.000000
vn 0.000000 -1.000000 0.000000
vn 0.000000 -1.000000 0.000000
vn 0.000000 -1.000000 0.000000
vn 0.000000 -1.000000 0.000000
vn 0.000000 -1.000000 0.000000
vn 0.000000 -1.000000 0.000000
vn 1.000000 0.000000 0.000000
vn 1.000000 0.000000 0.000000
vn 1.000000 0.000000 0.000000
vn 1.000000 0.000000 0.000000
vn 1.000000 0.000000 0.000000
vn 1.000000 0.000000 0.000000
vn 0.169845 0.985471 0.000000
vn 0.169845 0.985471 0.000000
vn 0.169846 0.985471 0.000000
vn 0.169846 0.985471 0.000000
vn 0.169845 0.985471 0.000000
vn 0.169846 0.985471 0.000000
vn -1.000000 0.000000 0.000000
vn -1.000000 0.000000 0.000000
vn -0.999975 0.007042 0.000000
vn -0.999975 0.007042 0.000000
vn -1.000000 0.000000 0.000000
vn -0.999975 0.007042 0.000000
vn -0.999975 0.007042 0.000000
vn -0.999975 0.007042 0.000000
vn -0.960697 -0.277601 0.000000
vn -0.960697 -0.277601 0.000000
vn -0.999975 0.007042 0.000000
vn -0.960697 -0.277601 0.000000
vn 0.852188 -0.523235 0.000000
vn 0.852188 -0.523235 0.000000
vn 0.834451 -0.551083 0.000000
vn 0.834451 -0.551083 0.000000
vn 0.852188 -0.523235 0.000000
vn 0.804914 -0.584089 -0.104658
vn 0.010095 0.000322 -0.999949
vn 0.040908 0.004632 -0.999152
vn 0.099894 0.053951 -0.993534
vn 0.099894 0.053951 -0.993534
vn 0.040908 0.004632 -0.999152
vn 0.078415 0.092091 -0.992658
vn -0.831867 0.554975 0.000000
vn -0.831867 0.554975 0.000000
vn -0.787901 0.604313 0.118399
vn -0.787901 0.604313 0.118399
vn -0.831867 0.554975 0.000000
vn -0.809543 0.587060 0.000000
vn 0.010095 0.000322 0.999949
vn 0.071723 0.038737 0.996672
vn 0.040908 0.004632 0.999152
vn 0.040908 0.004632 0.999152
vn 0.071723 0.038737 0.996672
vn 0.049612 0.058265 0.997068
vn 0.000000 0.000000 1.000000
vn 0.040908 0.004632 0.999152
vn 0.000000 0.000000 1.000000
vn 0.000000 0.000000 1.000000
vn 0.040908 0.004632 0.999152
vn 0.000000 0.000000 1.000000
vn 0.932131 0.362121 0.000000
vn 0.932131 0.362121 0.000000
vn 0.930784 0.361598 -0.053747
vn 0.930784 0.361598 -0.053747
vn 0.932131 0.362121 0.000000
vn 0.932131 0.362121 0.000000
vn 0.040908 0.004632 -0.999152
vn -0.000000 0.000000 -1.000000
vn 0.000000 0.000000 -1.000000
vn 0.000000 0.000000 -1.000000
vn -0.000000 0.000000 -1.000000
vn 0.000000 0.000000 -1.000000
vn -0.960697 -0.277601 0.000000
vn -0.960697 -0.277601 0.000000
vn -0.932131 -0.362121 0.000000
vn -0.932131 -0.362121 0.000000
vn -0.960697 -0.277601 0.000000
vn -0.930753 -0.361585 0.054369
vn 0.068318 0.376881 0.923739
vn 0.018936 0.342419 0.939357
vn 0.135821 0.428482 0.893284
vn 0.135821 0.428482 0.893284
vn 0.018936 0.342419 0.939357
vn 0.000000 0.387875 0.921712
vn 0.930784 0.361598 -0.053747
vn 0.932131 0.362121 0.000000
vn 0.930595 0.358246 -0.075189
vn 0.930595 0.358246 -0.075189
vn 0.932131 0.362121 0.000000
vn 0.932131 0.362121 0.000000
vn 0.000000 0.000000 -1.000000
vn 0.000000 0.000000 -1.000000
vn -0.000000 0.000000 -1.000000
vn -0.000000 0.000000 -1.000000
vn 0.000000 0.000000 -1.000000
vn 0.000000 0.000000 -1.000000
vn -0.932131 -0.362121 0.000000
vn -0.930753 -0.361585 0.054369
vn -0.932131 -0.362121 0.000000
vn -0.932131 -0.362121 0.000000
vn -0.930753 -0.361585 0.054369
vn -0.930526 -0.358477 0.074937
vn 0.834451 -0.551083 0.000000
vn 0.804914 -0.584089 -0.104658
vn 0.761378 -0.648309 0.000000
vn 0.761378 -0.648309 0.000000
vn 0.804914 -0.584089 -0.104658
vn 0.749605 -0.649891 -0.125437
vn -0.119229 0.284751 -0.951158
vn -0.119229 0.284751 -0.951158
vn -0.119229 0.284751 -0.951158
vn -0.119229 0.284751 -0.951158
vn -0.119229 0.284751 -0.951158
vn -0.119229 0.284751 -0.951158
vn -0.787901 0.604313 0.118399
vn -0.809543 0.587060 0.000000
vn -0.749450 0.649963 0.125988
vn -0.749450 0.649963 0.125988
vn -0.809543 0.587060 0.000000
vn -0.761378 0.648309 0.000000
vn 0.049612 0.058265 0.997068
vn 0.071723 0.038737 0.996672
vn 0.000000 0.000000 1.000000
vn 0.000000 0.000000 1.000000
vn 0.071723 0.038737 0.996672
vn 0.000000 0.000000 1.000000
vn -0.643370 -0.755578 -0.123193
vn -0.660810 -0.740364 -0.123258
vn -0.728034 -0.674445 -0.122844
vn -0.728034 -0.674445 -0.122844
vn -0.660810 -0.740364 -0.123258
vn -0.746839 -0.653623 -0.122510
vn -0.787901 0.604313 0.118399
vn -0.749450 0.649963 0.125988
vn -0.674291 0.681187 0.285160
vn -0.674291 0.681187 0.285160
vn -0.749450 0.649963 0.125988
vn -0.658004 0.699039 0.279957
vn 0.643436 0.755655 0.122376
vn 0.727047 0.674602 0.127730
vn 0.661809 0.739406 0.123645
vn 0.661809 0.739406 0.123645
vn 0.727047 0.674602 0.127730
vn 0.747523 0.651617 0.128857
vn 0.804914 -0.584089 -0.104658
vn 0.675129 -0.685773 -0.271876
vn 0.749605 -0.649891 -0.125437
vn 0.749605 -0.649891 -0.125437
vn 0.675129 -0.685773 -0.271876
vn 0.659504 -0.702845 -0.266576
vn 0.761378 -0.648309 0.000000
vn 0.749605 -0.649891 -0.125437
vn 0.887614 -0.460588 0.000000
vn 0.887614 -0.460588 0.000000
vn 0.749605 -0.649891 -0.125437
vn 0.887614 -0.460588 0.000000
vn 0.000000 0.000000 -1.000000
vn -0.000000 0.000000 -1.000000
vn -0.000000 0.000000 -1.000000
vn -0.000000 0.000000 -1.000000
vn -0.000000 0.000000 -1.000000
vn -0.000000 0.000000 -1.000000
vn -0.749450 0.649963 0.125988
vn -0.761378 0.648309 0.000000
vn -0.761378 0.648308 0.000000
vn -0.761378 0.648308 0.000000
vn -0.761378 0.648309 0.000000
vn -0.761378 0.648308 0.000000
vn 0.000000 0.000000 1.000000
vn 0.000000 0.000000 1.000000
vn 0.000000 0.000000 1.000000
vn 0.000000 0.000000 1.000000
vn 0.000000 0.000000 1.000000
vn 0.000000 0.000000 1.000000
vn 0.339373 -0.873574 0.348847
vn 0.343913 -0.871390 0.349861
vn 0.356908 -0.864987 0.352725
vn 0.356908 -0.864987 0.352725
vn 0.343913 -0.871390 0.349861
vn 0.362108 -0.862360 0.353854
vn 0.930784 0.361598 -0.053747
vn 0.930595 0.358246 -0.075189
vn 0.942944 0.306008 -0.131208
vn 0.942944 0.306008 -0.131208
vn 0.930595 0.358246 -0.075189
vn 0.932116 0.331533 -0.145761
vn -0.335864 0.864544 -0.373845
vn -0.357193 0.855886 -0.373996
vn -0.341828 0.861505 -0.375451
vn -0.341828 0.861505 -0.375451
vn -0.357193 0.855886 -0.373996
vn -0.362081 0.853301 -0.375199
vn -0.930753 -0.361585 0.054369
vn -0.929721 -0.339119 0.143584
vn -0.930526 -0.358477 0.074937
vn -0.930526 -0.358477 0.074937
vn -0.929721 -0.339119 0.143584
vn -0.932125 -0.332391 0.143732
vn 0.000000 0.000000 1.000000
vn 0.000000 0.000000 1.000000
vn 0.000000 0.000000 1.000000
vn 0.000000 0.000000 1.000000
vn 0.000000 0.000000 1.000000
vn 0.000000 0.000000 1.000000
vn 0.930595 0.358246 -0.075189
vn 0.932131 0.362121 0.000000
vn 0.932131 0.362121 0.000000
vn 0.932131 0.362121 0.000000
vn 0.932131 0.362121 0.000000
vn 0.932131 0.362121 0.000000
vn -0.000000 0.000000 -1.000000
vn 0.000000 0.000000 -1.000000
vn -0.000000 0.000000 -1.000000
vn -0.000000 0.000000 -1.000000
vn 0.000000 0.000000 -1.000000
vn -0.000000 0.000000 -1.000000
vn -0.932131 -0.362121 0.000000
vn -0.930526 -0.358477 0.074937
vn -0.932131 -0.362121 0.000000
vn -0.932131 -0.362121 0.000000
vn -0.930526 -0.358477 0.074937
vn -0.932131 -0.362121 0.000000
vn 0.887614 -0.460588 0.000000
vn 0.887614 -0.460588 0.000000
vn 0.980008 -0.198956 0.000000
vn 0.980008 -0.198956 0.000000
vn 0.887614 -0.460588 0.000000
vn 0.980008 -0.198956 0.000000
vn -0.000000 0.000000 -1.000000
vn -0.000000 0.000000 -1.000000
vn -0.000000 0.000000 -1.000000
vn -0.000000 0.000000 -1.000000
vn -0.000000 0.000000 -1.000000
vn -0.000000 0.000000 -1.000000
vn -0.991184 0.132491 0.000000
vn -0.991184 0.132491 0.000000
vn -0.991184 0.132491 0.000000
vn -0.991184 0.132491 0.000000
vn -0.991184 0.132491 0.000000
vn -0.991184 0.132491 0.000000
vn 0.000000 0.000000 1.000000
vn 0.000000 0.000000 1.000000
vn 0.000000 0.000000 1.000000
vn 0.000000 0.000000 1.000000
vn 0.000000 0.000000 1.000000
vn 0.000000 0.000000 1.000000
vn 0.942846 0.333229 0.000000
vn 0.942846 0.333228 0.000000
vn 0.942846 0.333228 0.000000
vn 0.942846 0.333228 0.000000
vn 0.942846 0.333228 0.000000
vn 0.942847 0.333227 0.000000
vn -0.000000 0.000000 -1.000000
vn -0.000000 0.000000 -1.000000
vn 0.000000 0.000000 -1.000000
vn 0.000000 0.000000 -1.000000
vn -0.000000 0.000000 -1.000000
vn -0.000000 0.000000 -1.000000
vn -0.985471 0.169846 0.000000
vn -0.985471 0.169846 0.000000
vn -0.985471 0.169846 0.000000
vn -0.985471 0.169846 0.000000
vn -0.985471 0.169846 0.000000
vn -0.985471 0.169845 0.000000
vn 0.000000 0.000000 1.000000
vn 0.000000 0.000000 1.000000
vn 0.000000 0.000000 1.000000
vn 0.000000 0.000000 1.000000
vn 0.000000 0.000000 1.000000
vn 0.000000 0.000000 1.000000
vn 0.587853 -0.808968 0.000000
vn 0.587853 -0.808968 0.000000
vn 0.587853 -0.808968 0.000000
vn 0.587853 -0.808968 0.000000
vn 0.587853 -0.808968 0.000000
vn 0.587853 -0.808968 0.000000
vn -0.000000 0.000000 -1.000000
vn 0.000000 0.000000 -1.000000
vn -0.000000 0.000000 -1.000000
vn -0.000000 0.000000 -1.000000
vn 0.000000 0.000000 -1.000000
vn -0.000000 0.000000 -1.000000
vn -0.653642 0.756804 0.000000
vn -0.653642 0.756804 0.000000
vn -0.653642 0.756804 0.000000
vn -0.653642 0.756804 0.000000
vn -0.653642 0.756804 0.000000
vn -0.653642 0.756804 0.000000
vn 0.000000 0.000000 1.000000
vn 0.000000 0.000000 1.000000
vn 0.000000 0.000000 1.000000
vn 0.000000 0.000000 1.000000
vn 0.000000 0.000000 1.000000
vn 0.000000 0.000000 1.000000
vn -0.169846 -0.985471 0.000000
vn -0.169846 -0.985471 0.000000
vn -0.169846 -0.985471 0.000000
vn -0.169846 -0.985471 0.000000
vn -0.169846 -0.985471 0.000000
vn -0.169846 -0.985471 0.000000
vn 0.000000 0.000000 1.000000
vn 0.000000 0.000000 1.000000
vn 0.000000 0.000000 1.000000
vn 0.000000 0.000000 1.000000
vn 0.000000 0.000000 1.000000
vn 0.000000 0.000000 1.000000
vn 0.169846 0.985471 0.000000
vn 0.169846 0.985471 0.000000
vn 0.169846 0.985471 0.000000
vn 0.169846 0.985471 0.000000
vn 0.169846 0.985471 0.000000
vn 0.169846 0.985471 0.000000
vn -0.000000 0.000000 -1.000000
vn -0.000000 0.000000 -1.000000
vn -0.000000 0.000000 -1.000000
vn -0.000000 0.000000 -1.000000
vn -0.000000 0.000000 -1.000000
vn 0.000000 0.000000 -1.000000
vn 0.362121 -0.859157 0.361549
vn 0.362121 -0.859157 0.361549
vn 0.362121 -0.859157 0.361549
vn 0.362121 -0.859157 0.361549
vn 0.362121 -0.859157 0.361549
vn 0.362122 -0.859157 0.361549
vn 0.942944 0.306008 -0.131208
vn 0.932116 0.331533 -0.145761
vn 0.952471 0.280782 -0.118158
vn 0.952471 0.280782 -0.118158
vn 0.932116 0.331533 -0.145761
vn 0.932131 0.333772 -0.140457
vn -0.362081 0.853301 -0.375199
vn -0.357193 0.855886 -0.373996
vn -0.362121 0.859157 -0.361549
vn -0.362121 0.859157 -0.361549
vn -0.357193 0.855886 -0.373996
vn -0.362121 0.859157 -0.361550
vn -0.931848 0.351948 0.088274
vn -0.931848 0.351947 0.088275
vn -0.931848 0.351947 0.088275
vn -0.931848 0.351947 0.088275
vn -0.931848 0.351947 0.088275
vn -0.931848 0.351947 0.088276
vn 0.028209 -0.453625 -0.890746
vn 0.028209 -0.453625 -0.890746
vn 0.028210 -0.453625 -0.890746
vn 0.028210 -0.453625 -0.890746
vn 0.028209 -0.453625 -0.890746
vn 0.028210 -0.453625 -0.890746
vn 0.942944 0.306008 -0.131208
vn 0.952471 0.280782 -0.118158
vn 0.961610 0.252936 -0.106441
vn 0.961610 0.252936 -0.106441
vn 0.952471 0.280782 -0.118158
vn 0.961610 0.252936 -0.106441
vn 0.018936 0.342419 0.939357
vn 0.068318 0.376881 0.923739
vn 0.028211 0.319766 0.947076
vn 0.028211 0.319766 0.947076
vn 0.068318 0.376881 0.923739
vn 0.028211 0.319767 0.947076
vn -0.894673 -0.411750 0.173272
vn -0.894673 -0.411750 0.173272
vn -0.894673 -0.411749 0.173272
vn -0.894673 -0.411749 0.173272
vn -0.894673 -0.411750 0.173272
vn -0.894673 -0.411749 0.173273
vn -0.257834 -0.465065 -0.846898
vn -0.251996 -0.379143 -0.890364
vn -0.257336 -0.456297 -0.851805
vn -0.257336 -0.456297 -0.851805
vn -0.251996 -0.379143 -0.890364
vn -0.250012 -0.355277 -0.900706
vn -0.346426 -0.864638 0.363856
vn -0.346727 -0.862342 0.368980
vn -0.348785 -0.842498 0.410543
vn -0.348785 -0.842498 0.410543
vn -0.346727 -0.862342 0.368980
vn -0.349311 -0.835428 0.424313
vn 0.068318 0.376881 0.923739
vn 0.135821 0.428482 0.893284
vn 0.170358 0.398192 0.901344
vn 0.170358 0.398192 0.901344
vn 0.135821 0.428482 0.893284
vn 0.169276 0.385198 0.907176
vn 0.323776 0.872063 -0.366981
vn 0.327067 0.852536 -0.407688
vn 0.324279 0.869423 -0.372756
vn 0.324279 0.869423 -0.372756
vn 0.327067 0.852536 -0.407688
vn 0.328135 0.844716 -0.422826
s off
f 1/1/1 2/2/2 3/3/3
f 3/3/4 2/2/5 4/4/6
f 3/3/7 4/4/8 5/5/9
f 5/5/10 4/4/11 6/6/12
f 41/7/13 42/8/14 44/9/15
f 44/9/16 42/8/17 43/10/18
f 8/11/19 10/12/20 7/13/21
f 7/13/22 10/12/23 9/14/24
f 9/14/25 10/12/26 11/15/27
f 11/15/28 10/12/29 12/16/30
f 11/15/31 12/16/32 1/17/33
f 1/17/34 12/16/35 2/18/36
f 2/2/37 12/19/38 4/4/39
f 4/4/40 12/19/41 10/20/42
f 50/21/43 49/22/44 52/23/45
f 52/23/46 49/22/47 51/24/48
f 11/25/49 1/1/50 9/26/51
f 9/26/52 1/1/53 3/3/54
f 9/26/55 3/3/56 7/27/57
f 7/27/58 3/3/59 5/5/60
f 4/4/61 10/20/62 14/28/63
f 14/28/64 10/20/65 13/29/66
f 10/20/67 8/30/68 13/29/69
f 13/29/70 8/30/71 15/31/72
f 8/30/73 6/6/74 15/31/75
f 15/31/76 6/6/77 16/32/78
f 4/4/79 14/28/80 6/6/81
f 6/6/82 14/28/83 16/32/84
f 5/5/85 6/6/86 17/33/87
f 17/33/88 6/6/89 18/34/90
f 6/6/91 8/11/92 18/34/93
f 18/34/94 8/11/95 19/35/96
f 8/11/97 7/13/98 19/35/99
f 19/35/100 7/13/101 20/36/102
f 7/13/103 5/5/104 20/36/105
f 20/36/106 5/5/107 17/33/108
f 61/37/109 62/38/110 64/39/111
f 64/39/112 62/38/113 63/40/114
f 18/34/115 19/35/116 22/41/117
f 22/41/118 19/35/119 23/42/120
f 19/35/121 20/36/122 23/42/123
f 23/42/124 20/36/125 24/43/126
f 20/36/127 17/33/128 24/43/129
f 24/43/130 17/33/131 21/44/132
f 14/28/133 13/29/134 26/45/135
f 26/45/136 13/29/137 25/46/138
f 30/47/139 29/48/140 32/49/141
f 32/49/142 29/48/143 31/50/144
f 15/31/145 16/32/146 27/51/147
f 27/51/148 16/32/149 28/52/150
f 16/32/151 14/28/152 28/52/153
f 28/52/154 14/28/155 26/45/156
f 13/29/157 15/31/158 30/47/159
f 30/47/160 15/31/161 29/48/162
f 15/31/163 27/51/164 29/48/165
f 29/48/166 27/51/167 31/50/168
f 25/46/169 32/49/170 27/51/171
f 27/51/172 32/49/173 31/50/174
f 13/29/175 30/47/176 25/46/177
f 25/46/178 30/47/179 32/49/180
f 26/45/181 25/46/182 34/53/183
f 34/53/184 25/46/185 33/54/186
f 25/46/187 27/51/188 33/54/189
f 33/54/190 27/51/191 35/55/192
f 27/51/193 28/52/194 35/55/195
f 35/55/196 28/52/197 36/56/198
f 28/52/199 26/45/200 36/56/201
f 36/56/202 26/45/203 34/53/204
f 17/33/205 18/34/206 37/57/207
f 37/57/208 18/34/209 38/58/210
f 18/34/211 22/41/212 38/58/213
f 38/58/214 22/41/215 39/59/216
f 21/44/217 40/60/218 22/41/219
f 22/41/220 40/60/221 39/59/222
f 17/33/223 37/57/224 21/44/225
f 21/44/226 37/57/227 40/60/228
f 21/44/229 22/41/230 41/7/231
f 41/7/232 22/41/233 42/8/234
f 22/41/235 23/42/236 42/8/237
f 42/8/238 23/42/239 43/10/240
f 23/42/241 24/43/242 43/10/243
f 43/10/244 24/43/245 44/9/246
f 24/43/247 21/44/248 44/9/249
f 44/9/250 21/44/251 41/7/252
f 34/53/253 33/54/254 46/61/255
f 46/61/256 33/54/257 45/62/258
f 33/54/259 35/55/260 45/62/261
f 45/62/262 35/55/263 47/63/264
f 35/55/265 36/56/266 47/63/267
f 47/63/268 36/56/269 48/64/270
f 34/53/271 46/61/272 36/56/273
f 36/56/274 46/61/275 48/64/276
f 54/65/277 53/66/278 56/67/279
f 56/67/280 53/66/281 55/68/282
f 45/62/283 47/63/284 49/22/285
f 49/22/286 47/63/287 51/24/288
f 58/69/289 57/70/290 60/71/291
f 60/71/292 57/70/293 59/72/294
f 48/64/295 46/61/296 52/23/297
f 52/23/298 46/61/299 50/21/300
f 46/61/301 45/62/302 54/65/303
f 54/65/304 45/62/305 53/66/306
f 45/62/307 49/22/308 53/66/309
f 53/66/310 49/22/311 55/68/312
f 49/22/313 50/21/314 55/68/315
f 55/68/316 50/21/317 56/67/318
f 46/61/319 54/65/320 50/21/321
f 50/21/322 54/65/323 56/67/324
f 47/63/325 48/64/326 58/69/327
f 58/69/328 48/64/329 57/70/330
f 48/64/331 52/23/332 57/70/333
f 57/70/334 52/23/335 59/72/336
f 52/23/337 51/24/338 59/72/339
f 59/72/340 51/24/341 60/71/342
f 51/24/343 47/63/344 60/71/345
f 60/71/346 47/63/347 58/69/348
f 65/73/349 66/74/350 68/75/351
f 68/75/352 66/74/353 67/76/354
f 38/58/355 39/59/356 62/38/357
f 62/38/358 39/59/359 63/40/360
f 39/59/361 40/60/362 63/40/363
f 63/40/364 40/60/365 64/39/366
f 70/77/367 69/78/368 72/79/369
f 72/79/370 69/78/371 71/80/372
f 37/57/373 38/58/374 65/73/375
f 65/73/376 38/58/377 66/74/378
f 38/58/379 62/38/380 66/74/381
f 66/74/382 62/38/383 67/76/384
f 62/38/385 61/37/386 67/76/387
f 67/76/388 61/37/389 68/75/390
f 61/37/391 37/57/392 68/75/393
f 68/75/394 37/57/395 65/73/396
f 37/57/397 69/78/398 40/60/399
f 40/60/400 69/78/401 70/77/402
f 37/57/403 61/37/404 69/78/405
f 69/78/406 61/37/407 71/80/408
f 61/37/409 64/39/410 71/80/411
f 71/80/412 64/39/413 72/79/414
f 40/60/415 70/77/416 64/39/417
f 64/39/418 70/77/419 72/79/420
